<svg height="24" viewBox="0 0 24 24" width="24" xmlns="http://www.w3.org/2000/svg"><path d="m12 0c4 0 7 1 9 3 1.9259259 1.92592593 2.9245542 4.77914952 2.9958848 8.5596708l.0041152.4403292c0 4-1 7-3 9-1.5550888 1.5550888-3.7147529 2.5056023-6.4789923 2.8515405-.1704506.0213315-.407563.0451861-.7113373.0715637-.1607959.0139397-.3024637-.105091-.3164259-.2658849-.0022613-.0260416-.0010184-.0522688.0036953-.0779798l.0611042-1.2991812c.0724149-1.7322418.1086223-3.4644837.1086223-5.1967255 0-.1138973-.0003457-.2514074-.0010372-.4125304-.0020913-.4779455.33434-.8905341.8029176-.9847214l.5693757-.1144485.3254988-.1131901c.7639598-.2751806 1.5275033-.6326504 1.6259137-1.1731229l.0106651-.1186533-.006396-.1412096c-.0635097-.697948-.5931994-1.2671256-1.2847886-1.3805685l-.1403863-.0165152-.8921086-.0561492-.4756111-.0208208c-.2981472-.013052-.5317643-.2610036-.5270593-.5593993.0402886-1.4243073.2530532-2.45152689.5898003-3.06245845.2003535-.36348422.4022655-.53046274.7025334-.57997104l.1174-.01321356.1037056-.00326689.1179843.00200046.1438895-.00367886c.8542611-.05843789 1.536009-.76259029 1.5507923-1.63449348.0140679-.82970249-.5806308-1.52806189-1.3722286-1.66900338l-.1416538-.01899895-.1242899-.00667948-.1462391-.00223997c-1.6857963 0-3.0452349.82210446-3.8711295 2.32045455-.5896794 1.069805-.9057315 2.46652188-.9886318 4.21208715l-.0142104.3793972-.0069189.3654262c-.0002538.1408208-.1110992.2565983-.2517761.262966-.36261245.0164456-.62537968.0288334-.78830175.0371635-.35855553.0183327-.64615711.0352922-.86280472.0508783-.75927835.0546401-1.35743122.6526058-1.42517488 1.3970837l-.00639605.1412096.00639605.1412097c.06350967.697948.59319924 1.2671255 1.28478839 1.3805684l.14038633.0165153.89210861.0561494.05518624.0024126c.53705002.0234779.95944998.4673365.95630818 1.0048903l-.0018406.3149209c0 2.1653023.0565741 4.3306046.1697265 6.4959067.0092896.1777732-.1272934.3294176-.3050666.3387072-.0154296.0008062-.0308971.000502-.046283-.0009102-.43975654-.0404085-.77796445-.0778391-1.01461988-.1123343-2.6006318-.3790719-4.64656805-1.31418-6.13709022-2.8047022-1.92592593-1.9259259-2.92455418-4.7791495-2.99588477-8.5596708l-.00411523-.4403292c0-4 1-7 3-9 1.92592593-1.92592593 4.77914952-2.92455418 8.5596708-2.99588477z" fill-rule="evenodd"/></svg>