<svg id="Ebene_1" data-name="Ebene 1" xmlns="http://www.w3.org/2000/svg" viewBox="0 0 256 256"><title>stics-smartwatch</title><path d="M156,56.5674A4.5675,4.5675,0,0,0,151.4324,52H104.5676A4.5675,4.5675,0,0,0,100,56.5674V72h56Z" style="fill:#fff"/><path d="M100,199.4326A4.5675,4.5675,0,0,0,104.5676,204h46.8649A4.5675,4.5675,0,0,0,156,199.4326V184H100Z" style="fill:#fff"/><path d="M156,80H100A16,16,0,0,0,84,96v64a16,16,0,0,0,16,16h56a16,16,0,0,0,16-16V96A16,16,0,0,0,156,80Zm8,80a8.0091,8.0091,0,0,1-8,8H100a8.0091,8.0091,0,0,1-8-8V96a8.0091,8.0091,0,0,1,8-8h56a8.0091,8.0091,0,0,1,8,8Z" style="fill:#fff"/><path d="M152,96H104a4,4,0,0,0-4,4v56a4,4,0,0,0,4,4h48a4,4,0,0,0,4-4V100A4,4,0,0,0,152,96Zm-43.521,16.5439,7.98-7.98a2,2,0,0,1,2.8281,2.8281l-7.98,7.98a2,2,0,0,1-2.8281-2.8281Zm18.957,2.9033L111.4141,131.47a2,2,0,0,1-2.8281-2.8281l16.022-16.0225a2,2,0,0,1,2.8281,2.8281Zm8.0532-8.0527-3.0107,3.0107a2,2,0,0,1-2.8281-2.8281l3.0107-3.0107a2,2,0,0,1,2.8281,2.8281Z" style="fill:#fff"/><path d="M176,100v16a4,4,0,0,0,4-4v-8A4,4,0,0,0,176,100Z" style="fill:#fff"/></svg>