<svg id="Ebene_1" data-name="Ebene 1" xmlns="http://www.w3.org/2000/svg" viewBox="0 0 256 256"><title>stics-edit</title><path d="M184.57,71.43a4,4,0,0,0-5.6569,0l-2.8284,2.8284,5.6569,5.657,2.8284-2.8286A4,4,0,0,0,184.57,71.43Z" style="fill:#fff"/><path d="M118.1593,115.2134l30.9924-30.9927a2.1075,2.1075,0,0,0-.0341-2.98l-2.6426-2.6426a2.1028,2.1028,0,0,0-3.0972.0935l-28.35,33.635a2.1339,2.1339,0,0,0,3.1313,2.8867Z" style="fill:#fff"/><path d="M176.0833,79.9167a67.4383,67.4383,0,0,0-6.4241-5.65,3.9909,3.9909,0,0,0-5.2549.3582L88.9156,150.1138a3.9731,3.9731,0,0,0-.5037,5.0452,48.5052,48.5052,0,0,0,12.4291,12.429,3.9729,3.9729,0,0,0,5.0451-.5034l75.4886-75.4888a3.9908,3.9908,0,0,0,.358-5.2549A67.413,67.413,0,0,0,176.0833,79.9167Z" style="fill:#fff"/><path d="M85.0276,157.2729l-6.9138,13.4893a4,4,0,0,0,.8594,4.3774l.9435.9436.9435.9436a4,4,0,0,0,4.3776.8594l13.4891-6.9138a51.7478,51.7478,0,0,1-13.6994-13.6995Z" style="fill:#fff"/><path d="M75.71,177.4617l-1.45,1.45a2,2,0,1,0,2.8284,2.8286l1.45-1.45c-.4841-.458-.9756-.9041-1.45-1.3784S76.1681,177.9458,75.71,177.4617Z" style="fill:#fff"/></svg>