<svg id="Ebene_1" data-name="Ebene 1" xmlns="http://www.w3.org/2000/svg" viewBox="0 0 256 256"><title>stics-category-office</title><path d="M98.2746,124.7759A3.7064,3.7064,0,0,0,102,128.0317V128h52v.0288a3.7081,3.7081,0,0,0,3.7094-3.2529l7.155-41.1235c1.0126-6.6089-1.7247-13.2178-7.1251-16C151.3263,63.8262,141.52,60,128.0186,60a61.1893,61.1893,0,0,0-29.7115,7.3042c-5.4,3.13-8.1874,9.7393-7.1748,16.3481Z" style="fill:#fff"/><path d="M152.103,176H132V159.9277A3.928,3.928,0,0,0,128.0721,156h-.1442A3.928,3.928,0,0,0,124,159.9277V176H103.897A3.8969,3.8969,0,0,0,100,179.897v.2061A3.8969,3.8969,0,0,0,103.897,184H152.103A3.8969,3.8969,0,0,0,156,180.103v-.2061A3.8969,3.8969,0,0,0,152.103,176Z" style="fill:#fff"/><path d="M90,120H78a2,2,0,0,0,0,4h2v16a4,4,0,0,0,8,0V124h2a2,2,0,0,0,0-4Z" style="fill:#fff"/><path d="M178,120H166a2,2,0,0,0,0,4h2v16a4,4,0,0,0,8,0V124h2a2,2,0,0,0,0-4Z" style="fill:#fff"/><circle cx="128" cy="192" r="4" style="fill:#fff"/><circle cx="152" cy="192" r="4" style="fill:#fff"/><circle cx="104" cy="192" r="4" style="fill:#fff"/><path d="M100.4854,132h55.0293A8.4854,8.4854,0,0,1,164,140.4854v3.0293A8.4854,8.4854,0,0,1,155.5146,152H100.4853A8.4853,8.4853,0,0,1,92,143.5147v-3.0294A8.4854,8.4854,0,0,1,100.4854,132Z" style="fill:#fff"/></svg>