<svg id="Ebene_1" data-name="Ebene 1" xmlns="http://www.w3.org/2000/svg" viewBox="0 0 256 256"><title>stics-money</title><path d="M128,60a68,68,0,1,0,68,68A68,68,0,0,0,128,60Zm0,128a60,60,0,1,1,60-60A60.068,60.068,0,0,1,128,188Z" style="fill:#fff"/><path d="M128,80a48,48,0,1,0,48,48A48,48,0,0,0,128,80Zm3,42a2,2,0,0,1,0,4H112.1383a14.53,14.53,0,0,0,0,4H124a2,2,0,0,1,0,4H113.1662a16.0013,16.0013,0,0,0,23.69,7.3252,4,4,0,1,1,4.4473,6.6494A24.0162,24.0162,0,0,1,104.7558,134H100a2,2,0,0,1,0-4h4.0881c-.0543-.662-.0881-1.3283-.0881-2s.0338-1.338.0881-2H100a2,2,0,0,1,0-4h4.7558a24.0049,24.0049,0,0,1,36.5479-13.9746,4,4,0,1,1-4.4473,6.6494A16.0109,16.0109,0,0,0,113.1662,122Z" style="fill:#fff"/></svg>