<svg id="Ebene_1" data-name="Ebene 1" xmlns="http://www.w3.org/2000/svg" viewBox="0 0 256 256"><title>stics-sms</title><path d="M128,168a8,8,0,1,0,8,8A8.0092,8.0092,0,0,0,128,168Zm0,12a4,4,0,1,1,4-4A4.004,4.004,0,0,1,128,180Z" style="fill:#fff"/><path d="M167.3486,140.1709a37.3207,37.3207,0,0,1-6.3433-.5586c-.3259.2354-.6695.4443-1.0054.6646V188H96V68h64v4.6714a39.314,39.314,0,0,1,7.3486-.69c.2184,0,.4338.0117.6514.0156V67.3413A7.3412,7.3412,0,0,0,160.6587,60H95.3413A7.3412,7.3412,0,0,0,88,67.3413V188.6587A7.3412,7.3412,0,0,0,95.3413,196h65.3174A7.3412,7.3412,0,0,0,168,188.6587V140.1553C167.7825,140.1592,167.5671,140.1709,167.3486,140.1709Z" style="fill:#fff"/><path d="M143.7057,137h.0478a20.8907,20.8907,0,0,0,15.11-6.07,31.2252,31.2252,0,0,0,8.4851,1.2412c15.8237,0,28.6513-11.658,28.6513-26.0854s-12.8276-26.1044-28.6513-26.1044-28.6514,11.7053-28.6514,26.1328a25.14,25.14,0,0,0,9.6732,19.5677,18.8343,18.8343,0,0,1-5.5847,8.8622A1.3751,1.3751,0,0,0,143.7057,137Z" style="fill:#fff"/><path d="M143.7534,145h-.0479a9.465,9.465,0,0,1-8.8789-6.1572,9.3186,9.3186,0,0,1,2.793-10.4062,7.9033,7.9033,0,0,0,1.042-1.0781,32.6676,32.6676,0,0,1-7.9644-21.2441c0-14.9155,10.33-27.6177,24.6736-32.2515A3.9881,3.9881,0,0,0,152,72H104a4,4,0,0,0-4,4v84a4,4,0,0,0,4,4h48a4,4,0,0,0,4-4V142.4551A30.1593,30.1593,0,0,1,143.7534,145ZM108.5822,88.5425l7.9289-7.9583a1.9906,1.9906,0,0,1,2.81,2.82l-7.9289,7.9583a1.9808,1.9808,0,0,1-2.81,0A1.999,1.999,0,0,1,108.5822,88.5425Zm18.8345,2.8953-15.9185,15.9778a1.9807,1.9807,0,0,1-2.81,0,1.9986,1.9986,0,0,1,0-2.82l15.9184-15.9778a1.99,1.99,0,0,1,2.81,2.82Zm2.2-7.8481,2.9913-3.0024a1.9906,1.9906,0,0,1,2.81,2.82L132.4266,86.41a1.9814,1.9814,0,0,1-2.81,0A1.999,1.999,0,0,1,129.6167,83.59Z" style="fill:#fff"/></svg>