<svg id="Ebene_1" data-name="Ebene 1" xmlns="http://www.w3.org/2000/svg" viewBox="0 0 256 256"><title>stics-target</title><path d="M212.0168,56.5564l-9.17-1.834a2,2,0,0,1-1.569-1.5689l-1.834-9.17a2,2,0,0,0-3.3754-1.022l-5.8428,5.8428-7.7284,7.7285a2,2,0,0,0-.547,1.8064l1.6757,8.3787-58.4539,58.4539a4,4,0,1,0,5.6563,5.6572l58.4544-58.4544,8.3785,1.6757a2,2,0,0,0,1.8065-.5469l7.7285-7.7284,5.8428-5.8428A2,2,0,0,0,212.0168,56.5564Z" style="fill:#fff"/><path d="M149.1255,123.8452a4.0862,4.0862,0,0,0-1.1569,3.1577c.02.33.0312.6619.0312.9969a20,20,0,1,1-20-20c.3351,0,.6675.0111.9974.0312a4.0862,4.0862,0,0,0,3.1579-1.1568l16.34-16.34a4.0114,4.0114,0,0,0-1.25-6.5109,47.9941,47.9941,0,1,0,24.7317,24.732,4.0114,4.0114,0,0,0-6.5109-1.25Z" style="fill:#fff"/><path d="M179.674,97.5527A60.0565,60.0565,0,1,1,158.4473,76.326a3.9926,3.9926,0,0,0,4.862-.606l.0136-.0136a4.0087,4.0087,0,0,0-.7975-6.2838,68.0147,68.0147,0,1,0,24.052,24.052,4.0087,4.0087,0,0,0-6.2838-.7975l-.0136.0136A3.9926,3.9926,0,0,0,179.674,97.5527Z" style="fill:#fff"/></svg>