<svg height="24" viewBox="0 0 24 24" width="24" xmlns="http://www.w3.org/2000/svg"><path d="m17 2c1.6666667 0 2.9166667.41666667 3.75 1.25.1012205.10122054.1962937.20858844.2852195.32210369.1509382-.0439232.329527-.09411588.5339605-.15020487.4555146-.12497631.9520867-.34625585 1.4897164-.66383863l.2722363-.16681665-1.5995353 2.36025343c.0182864.06063955.0356384.12221351.052056.18472186l2.2163466-.55321359c-.3504821.4753177-.676324.8354718-.9775259 1.08046232-.2216822.18031115-.5639023.52991405-1.0266601 1.04880868.0009651.03465901.001813.06936134.0024713.10425325l.0017147.18347051c0 4.6045695-2.0369709 8.7461099-6.1109127 12.4246212-3.6988964 3.3398691-8.4055023 3.7117887-14.11981773 1.1157588l-.36609427-.1697724c-.24961941-.1180341-.35629041-.4160761-.23825635-.6656955.07043294-.1489522.2097322-.2536388.37239673-.2798647 4.32178596-.6967894 6.21103505-1.3690014 5.66774725-2.0166363-1.20506293 0-2.62578609-.8116353-3.20506293-1.1850554-.05329405-.034355-.16917964-.1502018-.34765676-.3475404l-.09447492-.1054422c-.36670514-.412992-.32918218-1.0450615.08380986-1.4117666.18350696-.1629401.4205212-.2527154.66592706-.2522371.23625406.0004603.46765286-.0055297.69419639-.0179701-1.5681214-.3288719-2.70322162-1.2519464-3.40654734-2.7683437l-.09914363-.2244468c-.21400069-.5091467.02526243-1.0953735.53440915-1.30937421.21505259-.09038928.4549389-.10275189.67814401-.03494837.59545335.18088223 1.32534016.38679488 2.18966041.61773808l.19249483.0509757-.11165705-.0341122c-2.67324628-.86545954-3.95100675-2.55499254-3.8332814-5.06859905l.01572733-.24582656c.04455764-.55049651.52694434-.960641 1.07744084-.91608336.24715822.02000519.47806933.13112261.64791676.31178595 1.16052952 1.23443214 2.86412267 2.15063718 5.11077944 2.74861511 1.69300248.45061539 3.05023522.74556599 4.07169832.88485182-.0395091-.29035946-.0616636-.59571559-.0677286-.9171612l-.0017147-.18347051c0-1.66666667.4166667-2.91666667 1.25-3.75.8024691-.80246914 1.9913123-1.21856424 3.5665295-1.24828532z" fill-rule="evenodd"/></svg>