<svg height="24" viewBox="0 0 24 24" width="24" xmlns="http://www.w3.org/2000/svg"><path d="m20.5116182 1c.1871063 0 .3190022.06644732.3957267.19958595.093436.1421257.093436.30564141 0 .49152311l-6.7343819 12.40711584c-.0020242.0037293-.0030845.0079053-.0030845.0121485 0 .004247.0010307.0084306.0030035.0121917l4.2841592 8.1674977c.093436.1769354.0974968.340939.0126898.4920111-.0850802.1328947-.2213102.199342-.4083774.199342h-3.0496139c-.3572278 0-.6380043-.199342-.8420954-.5980259l-3.8321208-7.3234362c-.3085144-.5895914-.3035846-1.2940126.013147-1.8792307 1.5637226-2.8892032 3.6534818-6.75008869 6.2692774-11.58265656.2124078-.39872458.4848287-.59806654.8165206-.59806654zm-12.82369195 4.33261738c.34004772 0 .62082429.19938262.84209544.59806654l1.56622131 2.84456191c.3281091.59590969.3308248 1.31773587.0071967 1.91609097-.72519778 1.3408813-1.64530601 3.0409299-2.76032473 5.1001456-.22966595.4078743-.50638178.6114455-.82944469.6114455h-3.04984815c-.17851627 0-.31064643-.075109-.39549241-.2261811-.08480694-.1500962-.08480694-.3093827 0-.4781035l3.22836442-5.95398896v-.01346025l-2.05430368-3.70771165c-.10206508-.19462477-.10636009-.35862847-.01268981-.49152311.07668547-.13289463.21240781-.19934195.40837744-.19934195z" fill-rule="evenodd"/></svg>