<svg height="24" viewBox="0 0 24 24" width="24" xmlns="http://www.w3.org/2000/svg"><path d="m6 6c2 0 3.5.5 4.5 1.5.962963.96296296 1.4622771 2.38957476 1.4979424 4.2798354l.0020576.2201646c0 2-.5 3.5-1.5 4.5-.96296296.962963-2.38957476 1.4622771-4.27983539 1.4979424l-.22016461.0020576c-2 0-3.5-.5-4.5-1.5-.96296296-.962963-1.46227709-2.3895748-1.49794239-4.2798354l-.00205761-.2201646c0-2 .5-3.5 1.5-4.5.96296296-.96296296 2.38957476-1.46227709 4.27983539-1.49794239zm10.5 1c1.1666667 0 2.0416667.41666667 2.625 1.25.5617284.80246914.852995 1.9913123.8737997 3.5665295l.0012003.1834705c0 1.6666667-.2916667 2.9166667-.875 3.75-.5617284.8024691-1.3939186 1.2185642-2.4965706 1.2482853l-.1284294.0017147c-1.1666667 0-2.0416667-.4166667-2.625-1.25-.5617284-.8024691-.852995-1.9913123-.8737997-3.5665295l-.0012003-.1834705c0-1.6666667.2916667-2.91666667.875-3.75.5617284-.80246914 1.3939186-1.21856424 2.4965706-1.24828532zm6 1c.5 0 .875.33333333 1.125 1 .2407407.64197531.3655693 1.5930498.3744856 2.8532236l.0005144.1467764c0 1.3333333-.125 2.3333333-.375 3-.2407407.6419753-.5973937.9748514-1.0699588.9986283l-.0550412.0013717c-.5 0-.875-.3333333-1.125-1-.2407407-.6419753-.3655693-1.5930498-.3744856-2.8532236l-.0005144-.1467764c0-1.3333333.125-2.33333333.375-3 .2407407-.64197531.5973937-.97485139 1.0699588-.99862826z" fill-rule="evenodd"/></svg>