<svg height="64" viewBox="0 0 64 64" width="64" xmlns="http://www.w3.org/2000/svg"><path d="m32.0008247 0c17.6721219 0 31.9991753 14.325404 31.9991753 31.9991753s-14.3270534 32.0008247-31.9991753 32.0008247c-17.6737713 0-32.0008247-14.3270534-32.0008247-32.0008247s14.3270534-31.9991753 32.0008247-31.9991753zm-.2655601 11.7324811c-11.1370326 0-20.1644288 9.0273962-20.1644288 20.1644288 0 11.1370325 9.0273962 20.1627793 20.1644288 20.1627793 11.1353831 0 20.1644287-9.0257468 20.1644287-20.1627793 0-11.1370326-9.0290456-20.1644288-20.1644287-20.1644288zm4.9516249 6.4113812c3.3153785 0 7.7771192 1.3393469 7.7771192 5.3557382 0 6.5217378-9.2486709 9.1249597-15.1155361 10.5997071l-.5160147.1291245c-.4219188.1052136-.822904.2046063-1.1977062.2993378-.1913353 1.2106904-.3826706 2.4213809-.3826706 3.6337208 0 2.4840597 1.3376975 4.780083 4.0790702 4.780083 3.5710419 0 6.4394216-3.4423855 8.5424602-5.9924229l1.5950104 1.2123399c-2.9327079 4.3330842-7.0134274 8.2867967-12.4945233 8.2867967-5.802737 0-9.1807943-3.6337208-9.1807943-9.4991366 0-9.4974872 7.011778-18.8052885 16.8935852-18.8052885zm-.6383341 1.9117033c-4.5887477 0-6.9474498 8.9251308-7.8397979 12.4318445 4.2704054-1.2750187 10.2001495-4.780083 10.2001495-9.8174789 0-1.466354-.8296694-2.6143656-2.3603516-2.6143656z" fill-rule="evenodd"/></svg>