<?xml version="1.0" encoding="utf-8"?>
<!-- Generator: Adobe Illustrator 19.0.0, SVG Export Plug-In . SVG Version: 6.00 Build 0)  #212121 -->
<!DOCTYPE svg PUBLIC "-//W3C//DTD SVG 1.1//EN" "http://www.w3.org/Graphics/SVG/1.1/DTD/svg11.dtd">
<svg version="1.1" id="Ebene_1" xmlns="http://www.w3.org/2000/svg" xmlns:xlink="http://www.w3.org/1999/xlink" x="0px" y="0px"
	 viewBox="0 0 37 40" enable-background="new 0 0 37 40" xml:space="preserve">
<g>
	<g id="XMLID_188_">
		<path id="XMLID_189_" fill="#212121" d="M13.7,4c-5,0-9.4,1.8-10.5,4.2C5.4,9.6,9.2,10,13.5,10c4.4,0,8.2-0.4,10.4-1.9
			C22.8,5.8,18.7,4,13.7,4z M5.6,33.7c-0.1,0-0.1,0-0.1,0.1c0,0.1,0,0.2,0.1,0.3c0.1,0,0.2-0.1,0.2-0.2C5.7,33.8,5.7,33.8,5.6,33.7
			C5.7,33.7,5.6,33.7,5.6,33.7z M6.3,29.7c-0.1,0-0.1-0.1-0.2-0.1c-0.1,0-0.2,0-0.2,0c0,0-0.1,0.1-0.1,0.2v1.4c0,0.1,0,0.2,0.1,0.2
			c0,0,0.1,0.1,0.2,0.1c0.2,0,0.3,0,0.4-0.1c0.2-0.1,0.2-0.3,0.2-0.7c0-0.4-0.1-0.6-0.2-0.8C6.4,29.8,6.4,29.8,6.3,29.7z M11.6,34.8
			c-0.3,0-0.5,0.2-0.5,0.7c0,0.2,0,0.4,0.1,0.5c0.1,0.1,0.2,0.2,0.4,0.2c0.3,0,0.5-0.2,0.5-0.7c0-0.3,0-0.5-0.1-0.6
			C11.9,34.9,11.8,34.8,11.6,34.8z M5.1,34.7c0,0-0.1,0.1-0.1,0.2c0,0.1,0,0.2,0.1,0.2c0.1,0.1,0.1,0.1,0.2,0.2c0.1,0,0.1,0,0.2,0
			c0,0,0.1,0,0.2-0.1c-0.1-0.2-0.2-0.4-0.4-0.6C5.2,34.6,5.1,34.6,5.1,34.7z M30.4,11.2L27,11V6c0-3.3-6-6-13.5-6C6.1,0,0,2.7,0,6
			v28c0,3.3,6.1,6,13.5,6C21,40,27,37.3,27,34v-2l3.4,0c3.3,0,6.6-2.7,6.6-6v-9C37,13.7,33.7,11.2,30.4,11.2z M6.1,15.6
			c0-0.2-0.2-0.4-0.3-0.4c-0.1,0-0.2,0-0.3,0c-0.1,0-0.2,0-0.3,0C5,15,4.8,14.8,4.6,14.6c-0.1-0.2-0.2-0.5-0.2-0.7
			c0-0.3,0.1-0.5,0.3-0.6c0.2-0.1,0.4-0.1,0.7-0.1c0.1,0,0.4,0.2,0.9,0.3c0.3,0.1,0.7,0.2,1,0.3c0.3,0.1,0.6,0.1,1.1,0.1
			c0.5,0,0.8,0.1,0.9,0.1c0.7,0.1,1,0.5,1,1.1c0,0.3-0.1,0.5-0.2,0.6C10,16,9.8,16,9.6,16c-0.1,0-0.2,0-0.3-0.1
			c-0.1-0.1-0.3-0.1-0.3-0.1c-0.2,0-0.4,0.2-0.4,0.8v3.8c0,0.6,0.1,0.9,0.4,1c0.1,0,0.2,0,0.3,0c0.1,0,0.3,0,0.3,0
			c0.2,0,0.4,0.1,0.5,0.3c0.1,0.2,0.2,0.4,0.2,0.7c0,0.3-0.1,0.5-0.3,0.7c-0.2,0.2-0.4,0.2-0.7,0.2c-0.1,0-0.1,0-0.1,0
			C9,23.2,8.7,23.1,8.4,23c-0.2-0.1-0.5-0.1-0.7-0.2c-0.4-0.1-0.8-0.2-1.3-0.2c-0.5-0.1-0.9-0.1-1-0.2c-0.3-0.1-0.5-0.2-0.7-0.5
			c-0.2-0.2-0.3-0.5-0.3-0.8c0-0.3,0.1-0.5,0.2-0.6c0.1-0.1,0.3-0.2,0.5-0.1c0.1,0,0.2,0.1,0.3,0.1c0.1,0.1,0.2,0.1,0.3,0.1
			c0.2,0,0.3,0,0.3-0.3c0-0.1,0-0.3,0-0.6v-3.8C6.2,15.8,6.1,15.7,6.1,15.6z M11,25.8c0,0.2,0,0.2,0,0.3c0,0.1,0,0.2-0.1,0.3
			c-0.1,0.1-0.2,0.1-0.3,0.1c-0.3,0-0.4-0.2-0.4-0.5c0,0,0-0.1,0-0.2c0-0.1,0-0.1,0-0.2c0-0.1-0.1-0.2-0.2-0.2c-0.1,0-0.2,0-0.2,0.1
			c0,0-0.1,0.1-0.1,0.3v1.5c0,0.2,0.1,0.3,0.2,0.4c0,0,0.1,0,0.2,0c0.1,0,0.1,0,0.2,0c0.2,0,0.3,0.1,0.3,0.4c0,0.3-0.1,0.4-0.4,0.4
			c-0.1,0-0.2,0-0.4-0.1c-0.2,0-0.4-0.1-0.6-0.1c-0.2,0-0.3,0-0.6-0.1c-0.1,0-0.3,0-0.4,0c-0.3,0-0.4-0.2-0.4-0.5
			c0-0.2,0.1-0.3,0.3-0.3c0,0,0.1,0,0.2,0.1c0.1,0,0.1,0,0.2,0c0.1,0,0.2-0.1,0.2-0.3v-1.5c0-0.2-0.1-0.4-0.3-0.4
			c-0.2,0-0.3,0-0.3,0.1c0,0,0,0.1,0,0.2c0,0.1,0,0.1,0,0.2c0,0.3-0.1,0.5-0.4,0.4c-0.1,0-0.2-0.1-0.3-0.2c-0.1-0.1-0.1-0.2-0.1-0.3
			c0,0,0-0.1,0-0.2c0-0.1,0-0.2,0-0.3c0,0,0-0.1,0-0.3c0-0.1,0-0.2,0-0.2c0-0.2,0.1-0.2,0.2-0.2c0.1,0,0.2,0,0.3,0.1
			c0.3,0.1,0.7,0.2,1.2,0.2c0.5,0.1,0.9,0.1,1.2,0.1c0.1,0,0.2,0,0.3,0c0.2,0,0.2,0.1,0.2,0.3c0,0.1,0,0.1,0,0.2c0,0.1,0,0.2,0,0.2
			C11,25.6,11,25.7,11,25.8z M4.5,26.1c0-0.1,0-0.1,0-0.2c0-0.1,0-0.2,0.1-0.2c0.1,0,0.2,0,0.3,0c0.1,0,0.2,0.1,0.3,0.2
			c0.1,0.1,0.1,0.2,0.1,0.4c0,0.3,0.2,0.5,0.6,0.6c0.1,0,0.3,0,0.4,0c0.1,0,0.1-0.1,0.1-0.2c0-0.1,0-0.2-0.1-0.3
			C6.2,26.3,6,26.2,5.7,26c-0.1-0.1-0.2-0.1-0.3-0.2c-0.2-0.1-0.3-0.2-0.4-0.3c-0.3-0.3-0.4-0.6-0.4-0.9c0-0.3,0.1-0.6,0.3-0.7
			c0.2-0.1,0.5-0.2,0.8-0.1c0.4,0.1,0.7,0.3,0.9,0.6c0-0.1,0-0.2,0.1-0.2c0,0,0.1,0,0.2,0c0.2,0.1,0.3,0.2,0.3,0.4
			c0,0.1,0,0.1,0,0.2c0,0.1,0,0.2,0,0.2c0,0,0,0.1,0,0.1c0,0.1,0,0.1,0,0.1v0c0,0.2-0.1,0.3-0.4,0.2c-0.2,0-0.3-0.2-0.4-0.3
			c0,0,0-0.1,0-0.1c-0.1-0.2-0.2-0.4-0.6-0.5c-0.3-0.1-0.5,0-0.5,0.2c0,0.1,0,0.2,0.1,0.3c0.1,0.1,0.2,0.2,0.5,0.3
			c0.4,0.2,0.8,0.4,1,0.6c0.2,0.2,0.3,0.5,0.3,0.8c0,0.4-0.1,0.6-0.4,0.8c-0.2,0.2-0.6,0.2-0.9,0.1c-0.3-0.1-0.6-0.3-0.9-0.6
			c0,0.2-0.1,0.3-0.3,0.2c-0.2-0.1-0.3-0.2-0.3-0.4c0-0.1,0-0.2,0-0.2c0-0.1,0-0.2,0-0.3C4.5,26.3,4.5,26.2,4.5,26.1z M7.2,35.1
			c-0.1,0.1-0.2,0.1-0.2,0.1c-0.1,0-0.1-0.1-0.2-0.1c-0.1-0.1-0.1-0.1-0.1-0.2c0,0,0-0.1,0-0.1c0,0,0,0,0,0c0,0,0,0,0,0c0,0,0,0,0,0
			c-0.1,0-0.2,0-0.2,0.1c-0.1,0.1-0.1,0.2-0.2,0.3c0,0,0,0,0,0.1c0.1,0.1,0.1,0.2,0.2,0.2c0.1,0.1,0.1,0.1,0.2,0.1
			c0.2,0,0.3,0.2,0.3,0.3c0,0.1,0,0.1-0.1,0.1c0,0-0.1,0-0.1,0c0,0-0.1,0-0.1,0c-0.1,0-0.1,0-0.1,0c-0.1,0-0.1,0-0.2,0
			c-0.1,0-0.1,0-0.1,0c0,0-0.1,0-0.1-0.1c0,0,0-0.1-0.1-0.1c0,0-0.1-0.1-0.1-0.1c-0.1,0.1-0.2,0.1-0.3,0.2c-0.1,0-0.3,0-0.4,0
			c-0.2-0.1-0.4-0.2-0.6-0.4c-0.2-0.2-0.2-0.4-0.2-0.6c0-0.2,0.1-0.4,0.3-0.5c0.1,0,0.2,0,0.3-0.1c0,0,0,0,0.1,0
			c-0.1-0.2-0.1-0.3-0.1-0.5c0-0.2,0.1-0.3,0.2-0.3c0.1-0.1,0.3-0.1,0.5,0c0.2,0,0.3,0.1,0.4,0.3c0.1,0.1,0.2,0.3,0.2,0.4
			c0,0.1-0.1,0.2-0.2,0.3c-0.1,0-0.1,0.1-0.2,0.1c0.1,0.1,0.1,0.2,0.2,0.3c0,0,0,0,0-0.1c0-0.1,0.1-0.2,0.1-0.2
			c0.1-0.1,0.1-0.1,0.3-0.2c0.1,0,0.2,0,0.3,0c0.1,0,0.3,0.1,0.4,0.2c0.1,0.1,0.2,0.2,0.2,0.4C7.3,35,7.2,35.1,7.2,35.1z M7.4,31.7
			c-0.1,0.2-0.3,0.4-0.5,0.4c-0.2,0.1-0.4,0.1-0.7,0c-0.1,0-0.2-0.1-0.3-0.1C5.8,32,5.7,32,5.6,32c-0.1,0-0.2-0.1-0.3-0.1
			c-0.1,0-0.2-0.1-0.3-0.1c-0.1,0-0.1,0-0.2,0c-0.1,0-0.1,0-0.1,0c-0.1,0-0.2-0.1-0.2-0.2c-0.1-0.1-0.1-0.2-0.1-0.3
			c0-0.1,0-0.1,0.1-0.2c0,0,0.1-0.1,0.2,0c0,0,0.1,0,0.1,0.1c0,0,0.1,0,0.1,0C5,31.2,5,31.1,5,30.9v-1.3c0-0.2,0-0.3-0.1-0.3
			c0,0-0.1,0-0.1,0c0,0-0.1,0-0.1,0c-0.1,0-0.1-0.1-0.2-0.1c0-0.1-0.1-0.2-0.1-0.2c0-0.1,0-0.2,0.1-0.2c0.1,0,0.1,0,0.2,0
			c0.1,0,0.2,0.1,0.3,0.1c0.1,0,0.2,0.1,0.3,0.1c0,0,0.1,0,0.3,0.1C5.7,29,5.8,29,6,29c0.1,0,0.2,0,0.3,0.1c0.5,0.1,0.9,0.5,1.2,1
			c0.1,0.3,0.2,0.6,0.2,0.9C7.6,31.2,7.5,31.5,7.4,31.7z M10.1,36.5c-0.2,0.1-0.4,0.2-0.7,0.1c-0.3,0-0.6-0.2-0.8-0.5
			c-0.2-0.3-0.3-0.6-0.3-0.9c0-0.4,0.1-0.7,0.3-0.9C8.7,34.1,9,34,9.3,34.1c0.2,0,0.4,0.1,0.6,0.3v0c0-0.1,0.1-0.2,0.2-0.2
			c0.1,0,0.1,0,0.2,0.1c0,0,0.1,0.1,0.1,0.2c0,0,0,0.1,0,0.1c0,0.1,0,0.2,0,0.2c0,0,0,0.1,0,0.1c0,0.1,0,0.1,0,0.1
			c0,0.1,0,0.1-0.1,0.2c-0.1,0-0.1,0.1-0.2,0c-0.2,0-0.3-0.1-0.3-0.3v-0.1c0-0.1,0-0.1-0.1-0.2c-0.1-0.1-0.1-0.1-0.2-0.1
			c-0.3,0-0.5,0.2-0.5,0.7c0,0.3,0,0.5,0.1,0.6c0.1,0.1,0.2,0.2,0.4,0.2c0.1,0,0.2,0,0.3,0c0.1,0,0.1-0.1,0.1-0.2v-0.1
			c0-0.1,0-0.1,0.1-0.2c0,0,0.1-0.1,0.2,0c0.1,0,0.2,0.1,0.2,0.1c0.1,0.1,0.1,0.2,0.1,0.3C10.4,36.2,10.3,36.3,10.1,36.5z
			 M10.2,32.9c-0.2,0-0.6-0.1-1.1-0.2c-0.1,0-0.3,0-0.4-0.1c-0.2,0-0.3,0-0.4-0.1c-0.1,0-0.2,0-0.3,0c0,0,0,0,0,0c0,0,0,0,0,0
			c-0.1,0-0.2-0.1-0.2-0.1c-0.1-0.1-0.1-0.2-0.1-0.3c0-0.1,0-0.2,0.1-0.2c0,0,0.1-0.1,0.2-0.1c0,0,0.1,0,0.1,0c0,0,0.1,0,0.1,0
			c0.1,0,0.1-0.1,0.1-0.3v-1.3c0-0.2,0-0.3-0.1-0.3c0,0-0.1,0-0.1,0c0,0-0.1,0-0.1,0c-0.1,0-0.1-0.1-0.2-0.1c0-0.1-0.1-0.1-0.1-0.2
			c0-0.2,0.1-0.3,0.3-0.3c0.1,0,0.2,0,0.3,0.1c0.2,0.1,0.5,0.1,0.7,0.1c0,0,0.2,0,0.6,0.1c0.3,0,0.4,0,0.5,0c0.1,0,0.3,0,0.4,0
			c0.2,0,0.3,0.1,0.3,0.3c0,0,0,0.1,0,0.2c0,0.1,0,0.2,0,0.2c0,0,0,0.1,0,0.2c0,0.1,0,0.2,0,0.2c0,0.1,0,0.2-0.1,0.2
			c-0.1,0.1-0.1,0.1-0.2,0.1c-0.2,0-0.3-0.2-0.3-0.4c0,0,0-0.1,0-0.2c0-0.1,0-0.1,0-0.2c0-0.1,0-0.1-0.1-0.1c0,0-0.1,0-0.2,0
			c-0.2,0-0.3,0-0.5-0.1c-0.1,0-0.2,0-0.2,0c0,0-0.1,0.1-0.1,0.2v0.3c0,0.1,0,0.1,0,0.1c0,0,0,0,0.1,0.1c0.1,0,0.2,0,0.2-0.1v-0.1
			c0-0.1,0.1-0.2,0.2-0.2c0.2,0,0.2,0.1,0.2,0.3c0,0,0,0.1,0,0.1c0,0.1,0,0.2,0,0.3c0,0.1,0,0.2,0,0.3c0,0.1,0,0.2,0,0.3
			c0,0.2-0.1,0.3-0.2,0.2c-0.2,0-0.2-0.1-0.2-0.3v-0.1c0-0.1-0.1-0.1-0.2-0.1c-0.1,0-0.1,0-0.1,0.1v0.3C9,32,9,32,9.1,32.1
			c0,0,0.1,0.1,0.2,0.1c0.1,0,0.2,0,0.3,0c0.2,0,0.3,0,0.4,0c0.1,0,0.1-0.1,0.1-0.2c0,0,0-0.1,0-0.2c0-0.1,0-0.1,0-0.2
			c0-0.1,0-0.2,0.1-0.3c0.1-0.1,0.2-0.1,0.3-0.1c0.2,0,0.3,0.2,0.3,0.4c0,0.1,0,0.2,0,0.3c0,0.1,0,0.2,0,0.3c0,0,0,0.1,0,0.2
			c0,0.1,0,0.1,0,0.2c0,0.1-0.1,0.2-0.3,0.2C10.4,32.9,10.3,32.9,10.2,32.9z M12.5,36.5c-0.2,0.2-0.5,0.3-0.8,0.3
			c-0.4,0-0.6-0.2-0.8-0.4c-0.2-0.2-0.3-0.6-0.3-0.9c0-0.4,0.1-0.7,0.3-0.9c0.2-0.2,0.5-0.3,0.8-0.3c0.4,0,0.6,0.1,0.8,0.4
			c0.2,0.2,0.3,0.5,0.3,0.9C12.8,36,12.7,36.3,12.5,36.5z M11.1,32.1c0-0.1,0-0.1,0-0.2c0-0.1,0-0.1,0.1-0.2c0.1,0,0.2-0.1,0.3-0.1
			c0.1,0,0.2,0,0.3,0.1c0.1,0.1,0.1,0.2,0.1,0.3c0,0.2,0.2,0.4,0.5,0.4c0.1,0,0.2,0,0.3-0.1c0.1-0.1,0.1-0.1,0.1-0.2
			c0-0.1,0-0.2-0.1-0.2c-0.1,0-0.2-0.1-0.5-0.2c-0.1,0-0.2-0.1-0.3-0.1c-0.1,0-0.3-0.1-0.4-0.2c-0.2-0.2-0.3-0.4-0.3-0.7
			c0-0.3,0.1-0.5,0.3-0.7c0.2-0.2,0.4-0.2,0.7-0.2c0.3,0,0.6,0.1,0.8,0.4c0-0.1,0-0.2,0.1-0.2c0,0,0.1-0.1,0.2-0.1
			c0.2,0,0.3,0.1,0.3,0.2c0,0,0,0.1,0,0.2c0,0.1,0,0.2,0,0.2c0,0,0,0.1,0,0.1c0,0.1,0,0.1,0,0.1v0c0,0.2-0.1,0.3-0.3,0.3
			c-0.2,0-0.3-0.1-0.3-0.2c0,0,0-0.1,0-0.1c0-0.2-0.2-0.3-0.5-0.3c-0.3,0-0.4,0.1-0.4,0.3c0,0.1,0,0.2,0.1,0.2
			c0.1,0,0.2,0.1,0.4,0.1c0.4,0.1,0.7,0.2,0.8,0.4c0.2,0.2,0.3,0.4,0.3,0.6c0,0.3-0.1,0.6-0.3,0.8c-0.2,0.2-0.5,0.3-0.8,0.3
			c-0.3,0-0.5-0.1-0.8-0.3c0,0.2-0.1,0.2-0.3,0.2c-0.2,0-0.3-0.1-0.3-0.3c0-0.1,0-0.1,0-0.2c0-0.1,0-0.2,0-0.2
			C11.1,32.2,11.1,32.2,11.1,32.1z M22.7,26.7c0,0.1,0,0.1,0,0.2c0,0.2-0.1,0.3-0.3,0.3c-0.1,0-0.2,0-0.3,0.1
			c-0.3,0.1-0.7,0.2-1.2,0.3c-0.2,0-0.3,0.1-0.5,0.1c-0.2,0-0.3,0.1-0.4,0.1c-0.1,0-0.3,0.1-0.4,0.1c0,0,0,0,0,0c0,0,0,0,0,0
			c-0.1,0-0.2,0-0.3-0.1c-0.1-0.1-0.1-0.1-0.1-0.3c0-0.1,0-0.2,0.1-0.3c0.1-0.1,0.1-0.1,0.2-0.1c0,0,0.1,0,0.1,0c0.1,0,0.1,0,0.1,0
			c0.1,0,0.1-0.2,0.1-0.4v-1.5c0-0.2,0-0.3-0.1-0.3c0,0-0.1,0-0.1,0c0,0-0.1,0-0.1,0c-0.1,0-0.2,0-0.2-0.1c-0.1-0.1-0.1-0.1-0.1-0.2
			c0-0.3,0.1-0.4,0.4-0.5c0.1,0,0.2,0,0.4-0.1c0.3,0,0.5-0.1,0.8-0.2c0,0,0.2-0.1,0.6-0.2c0.3-0.1,0.5-0.1,0.6-0.2
			c0.2-0.1,0.3-0.1,0.5-0.2c0.2-0.1,0.3,0,0.3,0.2c0,0.1,0,0.1,0,0.3c0,0.1,0,0.2,0,0.3c0,0.1,0,0.1,0,0.2c0,0.1,0,0.2,0,0.2
			c0,0.1,0,0.2-0.1,0.3c-0.1,0.1-0.2,0.2-0.3,0.2c-0.3,0.1-0.4,0-0.4-0.3c0,0,0-0.1,0-0.2c0-0.1,0-0.1,0-0.2c0-0.1,0-0.1-0.1-0.1
			c0,0-0.1,0-0.2,0.1c-0.2,0-0.3,0.1-0.5,0.1c-0.1,0-0.2,0.1-0.2,0.1c-0.1,0-0.1,0.1-0.1,0.2v0.3c0,0.1,0,0.1,0,0.1c0,0,0.1,0,0.1,0
			c0.2,0,0.2-0.1,0.2-0.2v-0.1c0-0.1,0.1-0.2,0.3-0.3c0.2-0.1,0.3,0,0.3,0.2c0,0,0,0.1,0,0.2c0,0.1,0,0.2,0,0.3c0,0.1,0,0.2,0,0.3
			c0,0.1,0,0.2,0,0.3c0,0.2-0.1,0.3-0.3,0.4c-0.2,0-0.3,0-0.3-0.2v-0.2c0-0.1-0.1-0.1-0.2-0.1c-0.1,0-0.1,0.1-0.1,0.2v0.4
			c0,0.1,0,0.2,0.1,0.2c0,0,0.1,0,0.2,0c0.1,0,0.2-0.1,0.3-0.1c0.2-0.1,0.4-0.1,0.5-0.2c0.1-0.1,0.1-0.1,0.1-0.2c0,0,0-0.1,0-0.2
			c0-0.1,0-0.1,0-0.2c0-0.1,0-0.2,0.1-0.3c0.1-0.1,0.2-0.2,0.3-0.2c0.3-0.1,0.4,0,0.4,0.3c0,0.1,0,0.2,0,0.3c0,0.2,0,0.3,0,0.3
			C22.7,26.5,22.7,26.6,22.7,26.7z M19.7,20.6c-1.1,1-2.1,2.3-2.2,2.7c-0.1-0.4-1-1.4-2.2-2.1c-1.3-0.7-3.2-1.6-3.1-3.6
			c0-3.6,4-4.4,5.3-1.5c1.3-3.1,5.2-3.6,5.3,0.1C22.7,18.3,20.9,19.5,19.7,20.6z M18.9,27.6c0,0.1,0,0.2,0,0.2
			c0,0.2-0.1,0.3-0.3,0.4c-0.1,0-0.3,0-0.5,0.1c-0.3,0-0.8,0.1-1.5,0.2c-0.2,0-0.3,0-0.3,0c-0.1,0-0.3,0.1-0.4,0.1c0,0,0,0,0,0
			c0,0,0,0,0,0c-0.1,0-0.2,0-0.3-0.1c-0.1-0.1-0.1-0.2-0.1-0.3c0-0.1,0-0.2,0.1-0.3c0.1-0.1,0.1-0.1,0.2-0.1c0,0,0.1,0,0.1,0
			c0.1,0,0.1,0,0.1,0c0.1,0,0.1-0.1,0.1-0.4v-1.5c0-0.2,0-0.4-0.1-0.3c0,0-0.1,0-0.1,0c-0.1,0-0.1,0-0.1,0c-0.1,0-0.2,0-0.2-0.1
			c-0.1-0.1-0.1-0.1-0.1-0.2c0-0.3,0.1-0.4,0.4-0.4c0,0,0.2,0,0.5,0c0.2,0,0.3,0,0.5,0c0.1,0,0.2,0,0.3-0.1c0.2,0,0.3-0.1,0.4-0.1
			c0.1,0,0.2,0,0.3,0.1c0.1,0.1,0.1,0.1,0.1,0.3c0,0.1,0,0.2-0.1,0.3c-0.1,0.1-0.1,0.1-0.2,0.1c0,0-0.1,0-0.2,0c-0.1,0-0.1,0-0.2,0
			c-0.1,0-0.2,0.1-0.2,0.3v1.5c0,0.1,0,0.2,0,0.3c0,0.1,0.1,0.1,0.2,0.1c0,0,0.1,0,0.2,0c0.1,0,0.2,0,0.3,0c0.3,0,0.4-0.2,0.4-0.3
			c0,0,0-0.1,0-0.2c0-0.1,0-0.1,0-0.2c0-0.1,0-0.2,0.1-0.3c0.1-0.1,0.2-0.1,0.3-0.2c0.3,0,0.4,0.1,0.4,0.3c0,0.1,0,0.2,0,0.3
			c0,0.1,0,0.2,0,0.3C18.9,27.4,18.9,27.5,18.9,27.6z M18.5,32c0,0.1,0,0.1,0,0.2c0,0.1,0,0.1,0,0.2c0,0.2-0.1,0.3-0.3,0.4
			c-0.2,0-0.3,0-0.3-0.2v0c-0.2,0.2-0.5,0.3-0.7,0.3c-0.2,0-0.5,0-0.7-0.1c-0.2-0.1-0.4-0.3-0.5-0.4c-0.1-0.2-0.2-0.5-0.2-0.9
			c0-0.5,0.1-0.9,0.4-1.2c0.2-0.3,0.6-0.5,1-0.5c0.3,0,0.6,0,0.8,0.2c0-0.2,0.1-0.3,0.3-0.3c0.2,0,0.3,0,0.3,0.2c0,0,0,0.1,0,0.2
			c0,0.1,0,0.2,0,0.3c0,0.1,0,0.1,0,0.1c0,0.1,0,0.2,0,0.2c0,0.1,0,0.2-0.1,0.2c-0.1,0.1-0.2,0.1-0.3,0.1c-0.2,0-0.3,0-0.3-0.2
			c0-0.2-0.1-0.3-0.2-0.3c-0.1-0.1-0.2-0.1-0.3-0.1c-0.2,0-0.4,0.1-0.5,0.3c-0.1,0.2-0.2,0.5-0.2,0.8c0,0.3,0.1,0.5,0.2,0.7
			c0.1,0.1,0.3,0.2,0.4,0.2c0.1,0,0.2-0.1,0.3-0.1c0.1-0.1,0.1-0.2,0.1-0.3c0-0.1-0.1-0.2-0.2-0.2c0,0,0,0,0,0c0,0,0,0,0,0
			c0,0-0.1,0-0.1,0c-0.1,0-0.1,0-0.2-0.1c0,0-0.1-0.1-0.1-0.2c0-0.1,0-0.2,0.1-0.2c0.1-0.1,0.1-0.1,0.2-0.1c0.1,0,0.2,0,0.3,0
			c0.1,0,0.2,0,0.3,0c0.1,0,0.2,0,0.3-0.1c0.1,0,0.2,0,0.2-0.1c0.1,0,0.2,0,0.2,0c0.1,0,0.1,0.1,0.1,0.2c0,0.1,0,0.2-0.1,0.2
			c0,0.1-0.1,0.1-0.2,0.1c0,0-0.1,0-0.1,0c-0.1,0-0.1,0.1-0.1,0.2C18.5,31.9,18.5,32,18.5,32z M15.3,32.4c0,0,0.1,0,0.1,0
			c0,0,0.1,0,0.1,0c0.1,0,0.1,0,0.2,0.1c0,0.1,0.1,0.1,0.1,0.2c0,0.1,0,0.2-0.1,0.2C15.6,33,15.5,33,15.4,33c0,0,0,0,0,0
			c-0.1,0-0.2,0-0.3,0c-0.1,0-0.2,0-0.2,0c-0.1,0-0.3,0-0.4,0c-0.2,0-0.3,0-0.4,0c-0.1,0-0.2,0-0.2-0.1c-0.1-0.1-0.1-0.1-0.1-0.2
			c0-0.1,0-0.2,0.1-0.2c0-0.1,0.1-0.1,0.2-0.1c0,0,0.1,0,0.1,0c0,0,0.1,0,0.1,0c0.1,0,0.1,0,0.1-0.1c0,0,0-0.1,0-0.2v-1.3
			c0-0.1,0-0.2,0-0.2c0-0.1-0.1-0.1-0.1-0.1c0,0-0.1,0-0.1,0c0,0-0.1,0-0.1,0c-0.1,0-0.1,0-0.2-0.1c0-0.1-0.1-0.1-0.1-0.2
			c0-0.1,0-0.2,0.1-0.2C13.9,30,14,30,14.1,30c0,0,0.2,0,0.3,0c0.1,0,0.2,0,0.3,0c0.1,0,0.2,0,0.4,0c0.2,0,0.3,0,0.3,0
			c0.2,0,0.3,0.1,0.3,0.3c0,0.1,0,0.2-0.1,0.2c0,0.1-0.1,0.1-0.2,0.1c0,0-0.1,0-0.1,0c0,0-0.1,0-0.1,0c-0.1,0-0.1,0.1-0.1,0.3v1.3
			C15.1,32.3,15.2,32.4,15.3,32.4z M12.5,25c0.1,0,0.2,0,0.2,0c0.2,0,0.4,0.1,0.4,0.4c0,0.1,0,0.2-0.1,0.2c-0.1,0-0.1,0-0.1,0.1
			c0,0,0,0,0,0.1v0c0,0,0,0.1,0,0.1c0,0,0,0.1,0.1,0.1c0.1,0.2,0.2,0.4,0.3,0.6c0.1-0.2,0.2-0.4,0.3-0.6c0.1-0.1,0.1-0.2,0.1-0.2
			c0,0,0-0.1-0.1-0.1c-0.1,0-0.1-0.1-0.1-0.3c0-0.3,0.1-0.4,0.4-0.4c0.1,0,0.2,0,0.2,0c0.2,0,0.3,0,0.4,0c0.1,0,0.2,0,0.3,0
			c0.1,0,0.2,0,0.3,0c0.1,0,0.2,0,0.3,0.1c0.1,0.1,0.1,0.2,0.1,0.3c0,0.1,0,0.2-0.1,0.3c-0.1,0.1-0.1,0.1-0.2,0.1c0,0-0.1,0-0.1,0
			c0,0-0.1,0-0.1,0c-0.1,0-0.1,0-0.1,0c0,0-0.1,0.1-0.2,0.2c-0.2,0.4-0.5,0.8-0.7,1.1c-0.1,0.1-0.1,0.3-0.1,0.4v0.1
			c0,0.2,0.1,0.2,0.2,0.2c0,0,0.1,0,0.2,0c0.1,0,0.1,0,0.2,0c0.1,0,0.2,0,0.2,0.1c0.1,0.1,0.1,0.2,0.1,0.3c0,0.1,0,0.2-0.1,0.3
			c-0.1,0.1-0.2,0.1-0.3,0.1c-0.1,0-0.2,0-0.4,0c-0.2,0-0.3,0-0.4,0c-0.1,0-0.3,0-0.4,0c-0.2,0-0.3,0-0.4,0c-0.1,0-0.2,0-0.3-0.1
			c-0.1-0.1-0.1-0.2-0.1-0.3c0-0.2,0.1-0.4,0.3-0.3c0,0,0.1,0,0.2,0c0.1,0,0.1,0,0.2,0c0.1,0,0.2-0.1,0.2-0.2v-0.1
			c0-0.1,0-0.2-0.1-0.4c-0.3-0.4-0.5-0.9-0.8-1.3c0-0.1-0.1-0.1-0.2-0.1c0,0-0.1,0-0.1,0c-0.1,0-0.1,0-0.1,0c-0.2,0-0.3-0.1-0.3-0.3
			c0-0.3,0.1-0.4,0.4-0.4c0.1,0,0.2,0,0.3,0c0.1,0,0.2,0,0.3,0C12.2,25,12.3,25,12.5,25z M15.2,35.1c0,0.1,0,0.1,0,0.2
			c0,0.1,0,0.2-0.1,0.2c0,0.1-0.1,0.1-0.2,0.1c-0.1,0-0.1,0-0.2-0.1c0,0-0.1-0.1-0.1-0.2c0,0,0-0.1,0-0.1c0,0,0-0.1,0-0.1
			c0-0.1-0.1-0.1-0.2-0.1c-0.1,0-0.3,0-0.4,0c-0.1,0-0.2,0-0.2,0c0,0,0,0.1,0,0.2v0.2c0,0.1,0,0.1,0.1,0.1c0.1,0,0.1,0,0.1-0.1v-0.1
			c0-0.1,0.1-0.1,0.2-0.1c0.1,0,0.2,0.1,0.2,0.2c0,0,0,0.1,0,0.1c0,0.1,0,0.1,0,0.2c0,0,0,0.1,0,0.2c0,0.1,0,0.2,0,0.2
			c0,0.1-0.1,0.2-0.2,0.2c-0.1,0-0.2-0.1-0.2-0.2v-0.1c0-0.1,0-0.1-0.1-0.1c0,0-0.1,0-0.1,0c0,0,0,0,0,0.1v0.3c0,0,0,0.1,0,0.1
			c0,0,0,0.1,0.1,0.1c0,0,0.1,0,0.1,0c0.1,0,0.1,0,0.1,0c0.1,0,0.2,0.1,0.2,0.2c0,0.1,0,0.1-0.1,0.2c0,0-0.1,0.1-0.2,0.1
			c-0.1,0-0.2,0-0.3,0c-0.1,0-0.2,0-0.3,0c-0.1,0-0.2,0-0.3,0c-0.2,0-0.3,0-0.3,0c-0.1,0-0.1,0-0.2-0.1c0,0-0.1-0.1-0.1-0.2
			c0-0.1,0-0.1,0.1-0.2c0,0,0.1-0.1,0.1-0.1c0,0,0,0,0.1,0c0,0,0.1,0,0.1,0c0,0,0.1,0,0.1-0.1c0,0,0-0.1,0-0.1v-1c0-0.1,0-0.1,0-0.1
			c0-0.1,0-0.1-0.1-0.1c0,0,0,0-0.1,0c0,0-0.1,0-0.1,0c-0.1,0-0.1,0-0.1-0.1c0,0-0.1-0.1-0.1-0.2c0-0.2,0.1-0.3,0.3-0.3
			c0.1,0,0.1,0,0.3,0c0.2,0,0.3,0,0.4,0c0.1,0,0.2,0,0.3,0c0.1,0,0.2,0,0.4,0c0.1,0,0.2,0,0.3,0c0.1,0,0.1,0,0.2,0c0,0,0,0,0,0
			c0.1,0,0.2,0,0.2,0.1c0,0,0,0.1,0,0.1c0,0.1,0,0.1,0,0.2C15.1,34.9,15.1,35,15.2,35.1z M17.6,34.8c0,0.1,0,0.1,0,0.2
			c0,0.1,0,0.2-0.1,0.2c0,0.1-0.1,0.1-0.2,0.1c-0.1,0-0.1,0-0.2-0.1c0,0-0.1-0.1-0.1-0.2c0,0,0-0.1,0-0.1c0,0,0-0.1,0-0.1
			c0-0.1-0.1-0.1-0.2-0.1c-0.1,0-0.3,0-0.4,0c-0.1,0-0.2,0-0.2,0.1c0,0,0,0.1,0,0.2v0.2c0,0.1,0,0.1,0.1,0.1c0.1,0,0.1,0,0.1-0.1V35
			c0-0.1,0.1-0.1,0.2-0.2c0.1,0,0.2,0,0.2,0.2c0,0,0,0.1,0,0.1c0,0.1,0,0.1,0,0.2c0,0,0,0.1,0,0.2c0,0.1,0,0.2,0,0.2
			c0,0.1-0.1,0.2-0.2,0.2c-0.1,0-0.2,0-0.2-0.2v-0.1c0-0.1,0-0.1-0.1-0.1c0,0-0.1,0-0.1,0c0,0,0,0,0,0.1v0.3c0,0,0,0.1,0,0.1
			c0,0,0,0.1,0.1,0.1c0,0,0.1,0,0.1,0c0.1,0,0.1,0,0.1,0c0.1,0,0.2,0.1,0.2,0.2c0,0.1,0,0.1-0.1,0.2c0,0.1-0.1,0.1-0.2,0.1
			c-0.1,0-0.2,0-0.3,0c-0.1,0-0.2,0-0.3,0c-0.1,0-0.2,0-0.3,0c-0.2,0-0.3,0-0.3,0c-0.1,0-0.1,0-0.2-0.1c0,0-0.1-0.1-0.1-0.2
			c0-0.1,0-0.1,0.1-0.2c0,0,0.1-0.1,0.1-0.1c0,0,0,0,0.1,0c0,0,0.1,0,0.1,0c0,0,0.1,0,0.1-0.1c0,0,0-0.1,0-0.1v-1c0-0.1,0-0.1,0-0.1
			c0-0.1,0-0.1-0.1-0.1c0,0,0,0-0.1,0s-0.1,0-0.1,0c-0.1,0-0.1,0-0.1-0.1c0,0-0.1-0.1-0.1-0.2c0-0.2,0.1-0.3,0.3-0.3
			c0.1,0,0.1,0,0.3,0c0.2,0,0.3,0,0.4,0c0.1,0,0.2,0,0.3,0c0.1,0,0.2,0,0.4,0c0.1,0,0.2,0,0.3,0c0.1,0,0.1,0,0.2,0c0,0,0,0,0,0
			c0.1,0,0.2,0,0.2,0.1c0,0,0,0.1,0,0.1c0,0.1,0,0.1,0,0.2C17.6,34.7,17.6,34.7,17.6,34.8z M20.2,35.8c0,0,0,0.1,0,0.1
			c0,0.1-0.1,0.2-0.2,0.2c0,0-0.1,0-0.2,0c-0.2,0-0.4,0.1-0.8,0.1c-0.1,0-0.2,0-0.3,0.1c-0.1,0-0.2,0-0.3,0.1c-0.1,0-0.2,0-0.3,0.1
			c0,0,0,0,0,0c0,0,0,0,0,0c-0.1,0-0.1,0-0.2,0c0,0-0.1-0.1-0.1-0.2c0-0.1,0-0.1,0.1-0.2c0-0.1,0.1-0.1,0.1-0.1c0,0,0,0,0.1,0
			c0,0,0.1,0,0.1,0c0.1,0,0.1-0.1,0.1-0.3v-1c0-0.2,0-0.2-0.1-0.2c0,0,0,0-0.1,0c0,0-0.1,0-0.1,0c-0.1,0-0.1,0-0.1,0
			c0,0-0.1-0.1-0.1-0.2c0-0.2,0.1-0.3,0.3-0.3c0,0,0.1,0,0.2,0c0.2,0,0.4,0,0.5-0.1c0,0,0.2,0,0.4-0.1c0.2,0,0.3-0.1,0.4-0.1
			c0.1,0,0.2-0.1,0.3-0.1c0.1,0,0.2,0,0.2,0.1c0,0,0,0.1,0,0.2c0,0.1,0,0.1,0,0.2c0,0,0,0.1,0,0.2c0,0.1,0,0.1,0,0.2
			c0,0.1,0,0.1-0.1,0.2c0,0.1-0.1,0.1-0.2,0.1c-0.2,0-0.3,0-0.3-0.2c0,0,0-0.1,0-0.1c0-0.1,0-0.1,0-0.1c0-0.1,0-0.1-0.1-0.1
			c0,0-0.1,0-0.1,0c-0.1,0-0.2,0-0.3,0.1c-0.1,0-0.1,0-0.2,0c0,0-0.1,0.1-0.1,0.2v0.2c0,0,0,0.1,0,0.1c0,0,0,0,0.1,0
			c0.1,0,0.2-0.1,0.2-0.1v-0.1c0-0.1,0.1-0.2,0.2-0.2c0.1,0,0.2,0,0.2,0.1c0,0,0,0.1,0,0.1c0,0.1,0,0.2,0,0.2c0,0.1,0,0.1,0,0.2
			c0,0.1,0,0.2,0,0.2c0,0.1-0.1,0.2-0.2,0.2c-0.1,0-0.2,0-0.2-0.1v-0.1c0-0.1,0-0.1-0.1-0.1c-0.1,0-0.1,0.1-0.1,0.1v0.3
			c0,0.1,0,0.1,0,0.2c0,0,0.1,0,0.2,0c0.1,0,0.1,0,0.2,0c0.1,0,0.3-0.1,0.3-0.1c0.1,0,0.1-0.1,0.1-0.2c0,0,0-0.1,0-0.1
			c0,0,0-0.1,0-0.1c0-0.1,0-0.2,0.1-0.2c0-0.1,0.1-0.1,0.2-0.1c0.2,0,0.3,0,0.3,0.2c0,0.1,0,0.1,0,0.2c0,0.1,0,0.2,0,0.2
			C20.2,35.7,20.2,35.7,20.2,35.8z M22.7,35.1c0,0,0,0.1,0,0.1c0,0.1-0.1,0.2-0.2,0.2c0,0-0.1,0-0.2,0.1c-0.2,0-0.4,0.1-0.8,0.2
			c-0.1,0-0.2,0.1-0.3,0.1c-0.1,0-0.2,0.1-0.3,0.1c-0.1,0-0.2,0.1-0.3,0.1c0,0,0,0,0,0c0,0,0,0,0,0c-0.1,0-0.1,0-0.2,0
			c0,0-0.1-0.1-0.1-0.2c0-0.1,0-0.1,0.1-0.2c0-0.1,0.1-0.1,0.1-0.1c0,0,0,0,0.1,0c0,0,0.1,0,0.1,0c0.1,0,0.1-0.1,0.1-0.3v-1
			c0-0.2,0-0.2-0.1-0.2c0,0,0,0-0.1,0c0,0-0.1,0-0.1,0c-0.1,0-0.1,0-0.1,0c0,0-0.1-0.1-0.1-0.2c0-0.2,0.1-0.3,0.3-0.3
			c0,0,0.1,0,0.2,0c0.2,0,0.4-0.1,0.5-0.1c0,0,0.2,0,0.4-0.1c0.2-0.1,0.3-0.1,0.4-0.1c0.1,0,0.2-0.1,0.3-0.1c0.1,0,0.2,0,0.2,0.1
			c0,0,0,0.1,0,0.2c0,0.1,0,0.1,0,0.2c0,0,0,0.1,0,0.2c0,0.1,0,0.1,0,0.2c0,0.1,0,0.1-0.1,0.2c0,0.1-0.1,0.1-0.2,0.1
			c-0.2,0.1-0.3,0-0.3-0.2c0,0,0-0.1,0-0.1c0-0.1,0-0.1,0-0.1c0-0.1,0-0.1-0.1-0.1c0,0-0.1,0-0.1,0c-0.1,0-0.2,0.1-0.3,0.1
			c-0.1,0-0.1,0-0.2,0.1c0,0-0.1,0.1-0.1,0.2v0.2c0,0,0,0.1,0,0.1c0,0,0,0,0.1,0c0.1,0,0.1-0.1,0.1-0.2V34c0-0.1,0.1-0.2,0.2-0.2
			c0.1,0,0.2,0,0.2,0.1c0,0,0,0.1,0,0.1c0,0.1,0,0.2,0,0.2c0,0.1,0,0.1,0,0.2c0,0.1,0,0.2,0,0.2c0,0.1-0.1,0.2-0.2,0.3
			c-0.1,0-0.2,0-0.2-0.1v-0.1c0-0.1,0-0.1-0.1,0c-0.1,0-0.1,0.1-0.1,0.1v0.3c0,0.1,0,0.1,0,0.2c0,0,0.1,0,0.2,0c0.1,0,0.1,0,0.2-0.1
			c0.1,0,0.3-0.1,0.3-0.1c0.1,0,0.1-0.1,0.1-0.2c0,0,0-0.1,0-0.1c0,0,0-0.1,0-0.1c0-0.1,0-0.2,0.1-0.2c0-0.1,0.1-0.1,0.2-0.1
			c0.2-0.1,0.3,0,0.3,0.2c0,0.1,0,0.1,0,0.2c0,0.1,0,0.2,0,0.2C22.7,35,22.7,35,22.7,35.1z M22.7,29.1c0,0.1-0.1,0.1-0.2,0.1
			c0,0-0.1,0-0.1,0c0,0-0.1,0-0.1,0c-0.1,0-0.1,0.1-0.1,0.1c0,0,0,0.1,0,0.2v1.9c0,0.2-0.1,0.3-0.2,0.4c0,0-0.1,0-0.1,0
			c-0.1,0-0.1,0-0.1,0c0,0-0.1,0-0.2,0.1c0,0-0.1,0-0.1,0c-0.1,0-0.2,0-0.2,0c0,0-0.1-0.1-0.1-0.2c-0.3-0.6-0.6-1.2-0.9-1.8v1.4
			c0,0.2,0,0.3,0.1,0.3c0,0,0.1,0,0.1,0c0,0,0.1,0,0.1,0c0.1,0,0.1,0,0.2,0c0,0,0.1,0.1,0.1,0.2c0,0.2-0.1,0.4-0.3,0.4
			c-0.1,0-0.2,0-0.3,0c-0.1,0-0.2,0-0.3,0c-0.1,0-0.2,0-0.3,0.1c-0.1,0-0.2,0.1-0.3,0.1c-0.2,0-0.3,0-0.3-0.3c0-0.1,0-0.2,0.1-0.2
			c0-0.1,0.1-0.1,0.2-0.1c0,0,0.1,0,0.1,0c0,0,0.1,0,0.1,0c0.1,0,0.1-0.1,0.1-0.3v-1.3c0-0.2,0-0.3-0.1-0.3c0,0-0.1,0-0.1,0
			c0,0-0.1,0-0.1,0c-0.1,0-0.1,0-0.2-0.1c0,0-0.1-0.1-0.1-0.2c0-0.1,0-0.2,0.1-0.3c0.1-0.1,0.1-0.1,0.2-0.1c0.1,0,0.2,0,0.3,0
			c0.1,0,0.2,0,0.3,0c0.1,0,0.2,0,0.3-0.1c0.1,0,0.1,0,0.2-0.1c0,0,0.1,0,0.1,0c0.1,0,0.1,0,0.2,0c0,0,0.1,0.1,0.1,0.2
			c0.3,0.6,0.5,1.2,0.8,1.7v-1.4c0-0.2,0-0.3-0.1-0.3c0,0-0.1,0-0.1,0c0,0-0.1,0-0.1,0c-0.1,0-0.1,0-0.2,0c0,0-0.1-0.1-0.1-0.2
			c0-0.1,0-0.2,0.1-0.3c0.1-0.1,0.1-0.1,0.2-0.2c0,0,0.1,0,0.2,0c0.1,0,0.2,0,0.3-0.1c0.1,0,0.2-0.1,0.3-0.1
			c0.2-0.1,0.3-0.1,0.3-0.1c0.1,0,0.2,0,0.2,0c0.1,0,0.1,0.1,0.1,0.2C22.7,29,22.7,29,22.7,29.1z M13.5,11.1C6.6,11.1,1,9.2,1,6.2
			C1,3.3,6.6,1,13.5,1c6.9,0,12.6,2.3,12.6,5.2C26.1,9.2,20.5,11.1,13.5,11.1z M33,24c0,2.3-1.7,4-4,4h-2V15h2c2.3,0,4,1.7,4,4V24z"
			/>
	</g>
</g>
</svg>
