<svg id="Ebene_1" data-name="Ebene 1" xmlns="http://www.w3.org/2000/svg" viewBox="0 0 791.33 295.15"><defs><style>.cls-1{opacity:0.7;}.cls-2{fill:#fff;}</style></defs><title>complero-logo-negativ</title><g class="cls-1"><path class="cls-2" d="M165.18,213.26A68,68,0,1,1,213.26,130a18,18,0,0,1-34.77,9.32,32,32,0,1,0-3.2,24.28,4,4,0,1,1,6.93,4,40,40,0,1,1,4-30.35A10,10,0,0,0,205.53,132a60,60,0,1,0-6,45.53,4,4,0,0,1,6.93,4A67.56,67.56,0,0,1,165.18,213.26Z"/></g><path class="cls-2" d="M272.56,187.39c-9.52,0-16.74-2.72-21.48-8.08s-7.35-12.71-7.72-21.8c-.07-2-.11-5.2-.11-9.79s0-7.94.11-10c.37-9.09,3-16.43,7.72-21.8s12-8.08,21.48-8.08c6.52,0,12,1.2,16.33,3.58a24.27,24.27,0,0,1,9.62,9A25.19,25.19,0,0,1,302,131.58v.2a1.46,1.46,0,0,1-.55,1.2,2.18,2.18,0,0,1-1.46.48h-2.23c-1.17,0-1.87-.68-2.13-2.08-1.43-6.38-4.06-10.94-7.82-13.58s-8.88-4-15.23-4c-7,0-12.59,2-16.5,6s-6,10.16-6.33,18.38c-.07,2-.11,5.1-.11,9.26s0,7.35.11,9.48c.3,8.22,2.43,14.4,6.33,18.38s9.46,6,16.5,6c6.35,0,11.48-1.33,15.23-4s6.4-7.2,7.82-13.57c.27-1.41,1-2.09,2.13-2.09H300a2.26,2.26,0,0,1,1.52.54,1.43,1.43,0,0,1,.5,1.33,25.21,25.21,0,0,1-3.47,11.18,24.27,24.27,0,0,1-9.62,9C284.58,186.19,279.09,187.39,272.56,187.39Z"/><path class="cls-2" d="M339.3,187.39c-7.59,0-13.57-2.34-17.75-7s-6.44-10.73-6.66-18.12l-.11-4.68.11-4.66c.22-7.39,2.46-13.48,6.66-18.12s10.16-7,17.75-7,13.56,2.34,17.75,7,6.44,10.73,6.66,18.12c.07.77.11,2.33.11,4.67s0,3.9-.11,4.65c-.22,7.41-2.46,13.51-6.66,18.14S346.89,187.39,339.3,187.39Zm0-53.7c-5.34,0-9.71,1.74-13,5.17s-5,8.35-5.27,14.64l-.11,4.12.11,4.14c.23,6.3,2,11.22,5.27,14.65s7.65,5.17,13,5.17,9.72-1.74,13-5.17,5-8.35,5.27-14.64c.07-.74.11-2.14.11-4.13s0-3.39-.11-4.15c-.22-6.27-2-11.2-5.27-14.62S344.64,133.69,339.3,133.69Z"/><path class="cls-2" d="M455.4,186.28a2,2,0,0,1-2.12-2.12V152.84c0-6.82-1.44-11.77-4.27-14.71a14.91,14.91,0,0,0-11.21-4.45,14.62,14.62,0,0,0-10.65,4.5c-3,3-4.5,7.92-4.5,14.66v31.31a2,2,0,0,1-2.12,2.12h-1.89a2,2,0,0,1-2.12-2.12V152.84c0-6.74-1.49-11.67-4.44-14.66a15,15,0,0,0-11-4.5,14.61,14.61,0,0,0-10.65,4.5c-3,3-4.5,7.88-4.5,14.55v31.42a2,2,0,0,1-2.12,2.12h-1.89a2,2,0,0,1-2.12-2.12v-53a2,2,0,0,1,2.12-2.12h1.89a2,2,0,0,1,2.12,2.12V135a.33.33,0,0,0,.22.31l.11,0a.33.33,0,0,0,.26-.12,19.35,19.35,0,0,1,6.63-5.48,20.39,20.39,0,0,1,9-1.86c8.15,0,14,3.46,17.54,10.29a.33.33,0,0,0,.28.18h0a.33.33,0,0,0,.29-.17,19.58,19.58,0,0,1,7.51-7.51,22.11,22.11,0,0,1,11.15-2.8,19.27,19.27,0,0,1,14.8,6.19c3.79,4.12,5.71,10.06,5.71,17.66v32.42a2,2,0,0,1-2.12,2.12Z"/><path class="cls-2" d="M479.8,207.45a2,2,0,0,1-2.12-2.12V131.12A2,2,0,0,1,479.8,129h1.89a2,2,0,0,1,2.12,2.12v5.24a.33.33,0,0,0,.22.31l.1,0a.33.33,0,0,0,.26-.13c4.22-5.75,10.43-8.67,18.46-8.67s13.77,2.52,17.51,7.5,5.79,11.26,6,18.59c.07.77.11,2,.11,3.67s0,2.9-.11,3.65c-.22,7.35-2.24,13.6-6,18.61s-9.63,7.5-17.51,7.5-14.16-2.92-18.46-8.67a.32.32,0,0,0-.26-.13l-.1,0a.33.33,0,0,0-.22.31v26.41a2,2,0,0,1-2.12,2.12Zm22.39-73.76c-5.95,0-10.5,2-13.52,6a24.22,24.22,0,0,0-4.86,13.94l-.11,4.35.11,4.36a22.84,22.84,0,0,0,2.15,9.21,17.93,17.93,0,0,0,6.13,7.2,17.36,17.36,0,0,0,10.1,2.84c6.1,0,10.63-2,13.47-5.87s4.35-8.89,4.58-14.94c.07-.73.11-1.8.11-3.13,0-6.93-1.36-12.71-4.06-17.16S508.82,133.69,502.19,133.69Z"/><path class="cls-2" d="M544.53,186.28a2,2,0,0,1-2.12-2.12V109.95a2,2,0,0,1,2.12-2.12h1.89a2,2,0,0,1,2.12,2.12v74.21a2,2,0,0,1-2.12,2.12Z"/><path class="cls-2" d="M588.54,187.39c-6.93,0-12.59-2.31-16.81-6.86s-6.68-10.78-7.27-18.47l-.11-4.44.11-4.44c.58-7.6,3-13.79,7.21-18.39s9.86-6.91,16.86-6.91c7.59,0,13.6,2.55,17.86,7.57s6.44,12.05,6.44,20.85V158a2,2,0,0,1-.62,1.54,2.27,2.27,0,0,1-1.62.58H570.94a.33.33,0,0,0-.33.33v1.11a25.06,25.06,0,0,0,2.43,9.89,18.77,18.77,0,0,0,6.18,7.37,15.9,15.9,0,0,0,9.32,2.79,19,19,0,0,0,10.15-2.45,18.6,18.6,0,0,0,5.61-4.94,7.36,7.36,0,0,1,1.42-1.58,3.18,3.18,0,0,1,1.66-.28h1.78a2.22,2.22,0,0,1,1.46.48,1.48,1.48,0,0,1,.55,1.2c0,1.47-1,3.29-2.87,5.41a24.38,24.38,0,0,1-8.08,5.6A27.9,27.9,0,0,1,588.54,187.39Zm0-53.7c-5.5,0-9.91,1.91-13.12,5.69s-4.81,8.59-4.81,14.36v.45a.33.33,0,0,0,.33.33h35.43a.33.33,0,0,0,.33-.33v-.45c0-5.77-1.66-10.61-4.93-14.36S594,133.69,588.54,133.69Z"/><path class="cls-2" d="M630.32,186.28a2,2,0,0,1-2.12-2.12V131.23a2.27,2.27,0,0,1,.58-1.62,2,2,0,0,1,1.54-.62h1.78a2.15,2.15,0,0,1,2.24,2.24v5.12a.33.33,0,0,0,.25.32h.08a.33.33,0,0,0,.29-.18c2.6-5,7.6-7.51,14.86-7.51h4.12a2,2,0,0,1,2.12,2.12v1.56a2,2,0,0,1-2.12,2.12h-4.79c-4.53,0-8.17,1.34-10.82,4s-4,6.29-4,10.81v34.54a2,2,0,0,1-.62,1.54,2.27,2.27,0,0,1-1.62.58Z"/><path class="cls-2" d="M687.37,187.39c-7.59,0-13.57-2.34-17.75-7s-6.44-10.73-6.66-18.12l-.11-4.68L663,153c.22-7.39,2.46-13.48,6.66-18.12s10.16-7,17.75-7,13.57,2.34,17.75,7,6.44,10.73,6.66,18.12c.07.76.11,2.32.11,4.67s0,3.92-.11,4.65c-.22,7.41-2.46,13.51-6.66,18.14S695,187.39,687.37,187.39Zm0-53.7c-5.34,0-9.71,1.74-13,5.17s-5,8.35-5.27,14.64l-.11,4.13.11,4.14c.23,6.3,2,11.22,5.27,14.65s7.65,5.17,13,5.17,9.71-1.74,13-5.17,5-8.35,5.27-14.64c.07-.74.11-2.14.11-4.13s0-3.39-.11-4.15c-.22-6.27-2-11.2-5.27-14.62S692.71,133.69,687.37,133.69Z"/></svg>