<?xml version="1.0" encoding="utf-8"?>
<!-- Generator: Adobe Illustrator 19.2.1, SVG Export Plug-In . SVG Version: 6.00 Build 0)  -->
<svg version="1.1" id="Ebene_1" xmlns="http://www.w3.org/2000/svg" xmlns:xlink="http://www.w3.org/1999/xlink" x="0px" y="0px"
	 viewBox="0 0 841.9 229.7" style="enable-background:new 0 0 841.9 229.7;" xml:space="preserve">
<style type="text/css">
	.st0{fill:#76B82A;}
	.st1{fill:#0C662F;}
	.st2{fill:#1E672E;}
	.st3{fill:#FFFFFF;}
	.st4{fill:#9D9D9C;}
	.st5{fill:#282727;}
	.st6{opacity:0.5;fill:#E71D73;}
	.st7{fill:#E71D73;}
</style>
<g>
	<path class="st3" d="M217.8,133.5c0.6,5,5.8,8.3,12.6,8.3c6.8,0,11.4-3.2,11.4-7.7c0-4-2.9-6.2-10.2-7.8l-7.9-1.7
		c-11.2-2.4-16.7-8.1-16.7-17c0-11.2,9.7-18.6,23.3-18.6c14.2,0,23.1,7.3,23.3,18.3h-11.9c-0.4-5.1-4.9-8.3-11.3-8.3
		c-6.3,0-10.5,3-10.5,7.5c0,3.8,3,5.9,10,7.5l7.4,1.6c12.2,2.6,17.5,7.8,17.5,17.1c0,11.8-9.6,19.3-24.7,19.3
		c-14.6,0-24-7-24.3-18.4H217.8z"/>
	<path class="st3" d="M259.7,127.6c0-14.8,8.9-24,22.9-24c14,0,22.9,9.1,22.9,24c0,15.1-8.8,24-22.9,24
		C268.5,151.6,259.7,142.6,259.7,127.6z M293,127.6c0-9.2-3.9-14.5-10.4-14.5c-6.5,0-10.4,5.4-10.4,14.5c0,9.2,3.9,14.6,10.4,14.6
		S293,136.8,293,127.6z"/>
	<path class="st3" d="M312.4,87.1h12.3v63.8h-12.3V87.1z"/>
	<path class="st3" d="M375.9,150.8H364v-8.4h-0.3c-2.4,5.8-6.9,9.1-14,9.1c-10,0-16.7-6.5-16.7-17.3v-29.8h12.3v27.2
		c0,6.3,3.1,9.7,8.8,9.7c5.7,0,9.3-4.1,9.3-10.4v-26.4h12.3V150.8z"/>
	<path class="st3" d="M399.9,94.1v10.3h8.6v9.3h-8.6v22.6c0,3.6,1.8,5.3,5.5,5.3c1.1,0,2.3-0.1,3.1-0.2v9.1
		c-1.3,0.3-3.5,0.5-5.9,0.5c-10.8,0-15-3.6-15-12.7v-24.6h-6.3v-9.3h6.3V94.1H399.9z"/>
	<path class="st3" d="M415.3,92.9c0-3.7,3-6.4,6.6-6.4c3.7,0,6.7,2.7,6.7,6.4s-3,6.5-6.7,6.5C418.2,99.3,415.3,96.5,415.3,92.9z
		 M415.7,104.4H428v46.4h-12.3V104.4z"/>
	<path class="st3" d="M434.9,127.6c0-14.8,8.9-24,22.9-24c14,0,22.9,9.1,22.9,24c0,15.1-8.8,24-22.9,24
		C443.7,151.6,434.9,142.6,434.9,127.6z M468.1,127.6c0-9.2-3.9-14.5-10.4-14.5c-6.5,0-10.4,5.4-10.4,14.5c0,9.2,3.9,14.6,10.4,14.6
		S468.1,136.8,468.1,127.6z"/>
	<path class="st3" d="M487.2,104.4h11.9v8.3h0.3c2.7-5.9,7.4-9,14.5-9c10.3,0,16.1,6.5,16.1,17.3v29.8h-12.3v-27.2
		c0-6.2-2.9-9.7-8.7-9.7c-5.9,0-9.4,4.2-9.4,10.4v26.5h-12.3V104.4z"/>
	<path class="st3" d="M567.6,133.5c0.6,5,5.8,8.3,12.6,8.3c6.8,0,11.4-3.2,11.4-7.7c0-4-2.9-6.2-10.2-7.8l-7.9-1.7
		c-11.2-2.4-16.7-8.1-16.7-17c0-11.2,9.7-18.6,23.3-18.6c14.2,0,23.1,7.3,23.3,18.3h-11.9c-0.4-5.1-4.9-8.3-11.3-8.3
		c-6.3,0-10.5,3-10.5,7.5c0,3.8,3,5.9,10,7.5l7.4,1.6c12.2,2.6,17.5,7.8,17.5,17.1c0,11.8-9.6,19.3-24.7,19.3
		c-14.6,0-24-7-24.3-18.4H567.6z"/>
	<path class="st3" d="M657.1,127.6c0,14.8-7.3,23.8-18.9,23.8c-6.7,0-11.9-3.1-14.4-8.4h-0.3v23h-12.3v-61.6h12.1v7.9h0.3
		c2.4-5.2,7.9-8.5,14.4-8.5C649.8,103.8,657.1,112.8,657.1,127.6z M644.5,127.6c0-8.4-4.2-13.8-10.5-13.8c-6.3,0-10.5,5.5-10.5,13.8
		c0,8.4,4.2,13.8,10.5,13.8C640.3,141.4,644.5,136,644.5,127.6z"/>
	<path class="st3" d="M661.8,137.5c0-8.4,6.5-13.2,18.3-13.9l11.6-0.7v-3.1c0-4.5-3.1-6.9-8.1-6.9c-4.5,0-7.6,2.4-8.2,5.7h-11.3
		c0.3-8.9,8.4-15,19.9-15c11.9,0,19.7,6.1,19.7,15.4v31.8h-11.9v-7.2h-0.3c-2.5,4.9-8.3,7.7-14.2,7.7
		C668.5,151.4,661.8,145.8,661.8,137.5z M691.7,133.8v-3.4l-9.7,0.7c-5.1,0.3-7.9,2.4-7.9,5.8c0,3.4,2.9,5.6,7.4,5.6
		C687.1,142.4,691.7,138.9,691.7,133.8z"/>
	<path class="st3" d="M742.6,121.5c-0.7-4.8-4-8.2-9.4-8.2c-6.3,0-10.3,5.4-10.3,14.3c0,9.1,4,14.3,10.4,14.3c5.2,0,8.6-2.8,9.4-7.9
		h11.5c-0.7,10.8-8.8,17.7-21,17.7c-13.9,0-22.7-9.1-22.7-24c0-14.7,8.9-24,22.6-24c12.5,0,20.5,7.6,21,17.9H742.6z"/>
	<path class="st3" d="M802.3,136.7c-1.4,9-9.7,15-21,15c-14.1,0-22.8-9.1-22.8-23.8s8.7-24.2,22.3-24.2c13.4,0,21.9,8.9,21.9,23.1
		v3.8h-32.1v0.8c0,6.7,4.3,11.2,10.8,11.2c4.6,0,8.3-2.2,9.5-5.8H802.3z M770.8,122.8h20c-0.2-6.1-4.2-10-9.9-10
		C775.3,112.8,771.2,116.9,770.8,122.8z"/>
</g>
<path class="st3" d="M121.4,100.1c-2,5.7-4.4,9.8-6.4,12.4c1.4,0.4,3.1,1,4.6,2.3c1.2,1,2.2,2.1,3,3.1c1.2,1.5,3.6,0.9,3.8-1.1
	c0.1-0.8,0.2-1.7,0.2-2.8C126.6,108.2,123.6,103,121.4,100.1z"/>
<path class="st3" d="M86,100.1c-2.2,3-5.2,8.1-5.2,13.9c0,1,0.1,2,0.2,2.8c0.3,1.9,2.7,2.6,3.8,1.1c0.8-1,1.8-2.1,3-3.1
	c1.5-1.2,3.2-1.9,4.6-2.3C90.4,109.8,88,105.7,86,100.1z"/>
<path class="st3" d="M147,113c-0.9-0.1-1.7-0.9-1.8-1.8l-0.3-2.2l-0.3,2.2c-0.1,0.9-0.9,1.7-1.8,1.8l-2.2,0.3l2.2,0.3
	c0.9,0.1,1.7,0.9,1.8,1.8l0.3,2.2l0.3-2.2c0.1-0.9,0.9-1.7,1.8-1.8l2.2-0.3L147,113z"/>
<path class="st3" d="M80.5,132.6c-0.9-0.1-1.7-0.9-1.8-1.8l-0.3-2.2l-0.3,2.2c-0.1,0.9-0.9,1.7-1.8,1.8l-2.2,0.3l2.2,0.3
	c0.9,0.1,1.7,0.9,1.8,1.8l0.3,2.2l0.3-2.2c0.1-0.9,0.9-1.7,1.8-1.8l2.2-0.3L80.5,132.6z"/>
<path class="st3" d="M69.8,95.4c-0.9-0.1-1.7-0.9-1.8-1.8l-0.3-2.2l-0.3,2.2c-0.1,0.9-0.9,1.7-1.8,1.8l-2.2,0.3l2.2,0.3
	c0.9,0.1,1.7,0.9,1.8,1.8l0.3,2.2l0.3-2.2c0.1-0.9,0.9-1.7,1.8-1.8l2.2-0.3L69.8,95.4z"/>
<circle class="st3" cx="130" cy="134" r="1.1"/>
<circle class="st3" cx="131" cy="93.5" r="1.1"/>
<circle class="st3" cx="149.2" cy="129.5" r="1.1"/>
<circle class="st3" cx="57.2" cy="137.2" r="1.1"/>
<circle class="st3" cx="60.5" cy="121.4" r="1.1"/>
<g>
	<path class="st3" d="M155.2,153.6c-0.1,0.2-0.2,0.4-0.3,0.6C155,154,155.1,153.8,155.2,153.6z"/>
	<path class="st3" d="M155.8,152.4c0-0.1,0.1-0.2,0.1-0.2c0,0,0,0,0,0C155.9,152.2,155.9,152.3,155.8,152.4z"/>
</g>
<g>
	<path class="st3" d="M121.2,64c-3.6-11.9-11-20.1-14.7-23.7c-0.8-0.7-1.8-1.1-2.8-1.1c-1.1,0-2.1,0.4-2.8,1.1
		C97.2,43.9,89.8,52.1,86.2,64c-27.1,7.6-47,32.5-47,62.1c0,35.6,28.9,64.5,64.5,64.5s64.5-28.9,64.5-64.5
		C168.2,96.5,148.3,71.6,121.2,64z M94.2,50.7c1.2,1.2,4.5,3.8,9.4,3.8c5.1,0,8.5-2.6,9.6-3.6c4.3,6.5,8.5,15.8,8.5,27.1
		c0,23.7-10.6,34.7-11.6,35.3c-0.1,0.1-0.4,0.2-0.7,0.2c-0.3,0-2.2,0-2.2,0c0,0.5-0.1,0.9-0.1,1.3c-0.4,3.5-0.9,5.6-1.7,6.7h2.2
		c-0.5,3.1-1,9.3,1.3,16.4c-1.5-0.8-3.3-1.2-5.1-1.2c-1.7,0-3.4,0.4-4.8,1.1c2.2-7,1.7-13.2,1.2-16.3h1.8c-0.8-1.1-1.3-3.2-1.7-6.7
		c0-0.4-0.1-0.9-0.1-1.3c0,0-2,0-2.2,0c-0.3-0.1-0.6-0.1-0.7-0.2c-1.1-0.6-11.6-11.6-11.6-35.3C85.6,66.5,89.9,57.2,94.2,50.7z
		 M51,151.4L51,151.4c-3.7-7.7-5.8-16.3-5.8-25.3c0-25.5,16.5-47.3,39.4-55.2c-0.3,2.3-0.5,4.7-0.5,7.2c0,24,10.7,35.7,12.4,36.6
		c0.1,0.1,0.2,0.1,0.4,0.2l0,0v5.5c0,0.7,0.6,1.3,1.3,1.3h0.4c0.5,3,1.1,9.9-1.7,17.5c-2.3,1.7-3.9,4.3-4.5,7.2
		c-1-0.4-2-0.6-3.1-0.6c-2.9,0-5.5,1.3-7.2,3.5c-0.2,0-0.3-0.1-0.5-0.1c-2.2-0.5-4.5,0-6.3,1.2c-0.9,0.6-1.6,1.3-2.2,2.1
		c-1-1.8-2.4-3.3-4.2-4.5c-2.9-1.9-6.3-2.6-9.7-1.9C55.8,146.6,53,148.5,51,151.4z M52.7,154.6L52.7,154.6L52.7,154.6L52.7,154.6z
		 M103.7,184.5c-21.9,0-40.9-12.1-51-29.9c0.2-0.5,0.5-1,0.8-1.5c1.5-2.2,3.7-3.7,6.2-4.3c2.6-0.5,5.2,0,7.4,1.4
		c2.2,1.5,3.7,3.7,4.3,6.2c0,0,0,0,0,0c0,0.5,0,1,0,1.5c0.1,0.8,0.7,1.4,1.5,1.4c0,0,0.1,0,0.1,0c0.8-0.1,1.4-0.8,1.4-1.7
		c-0.2-2,0.7-3.9,2.4-5c1.2-0.8,2.6-1,4.1-0.8c1.4,0.3,2.6,1.1,3.4,2.3c0.5,0.7,1.4,0.9,2.1,0.4c0.7-0.5,0.9-1.4,0.4-2.1
		c-0.5-0.8-1.2-1.5-2-2.1c1.1-1.2,2.7-1.9,4.4-1.9c3.4,0,6.1,2.8,6.1,6.1c0,0.8,0.7,1.5,1.5,1.5c0.8,0,1.5-0.7,1.5-1.5
		c0-2.8-1.2-5.3-3.2-6.9c0.2-4.5,3.9-8.1,8.5-8.1c4.5,0,8.2,3.5,8.5,8c-2,1.7-3.3,4.2-3.3,7.1c0,0.8,0.7,1.5,1.5,1.5
		c0.8,0,1.5-0.7,1.5-1.5c0-3.4,2.8-6.1,6.1-6.1c1.7,0,3.3,0.7,4.4,1.9c-0.8,0.6-1.4,1.3-2,2.1c-0.5,0.7-0.3,1.6,0.4,2.1
		c0.7,0.5,1.6,0.3,2.1-0.4c0.8-1.2,2-2,3.4-2.3c1.4-0.3,2.9,0,4.1,0.8c1.7,1.1,2.6,3,2.4,5c-0.1,0.8,0.5,1.6,1.4,1.7
		c0,0,0.1,0,0.1,0c0.8,0,1.4-0.6,1.5-1.4c0-0.5,0-1,0-1.5c0,0,0,0,0,0c0.5-2.6,2-4.8,4.3-6.2c2.2-1.5,4.9-2,7.4-1.4
		c2.6,0.5,4.8,2,6.2,4.3c0.3,0.5,0.6,1,0.8,1.5l0,0C144.6,172.4,125.5,184.5,103.7,184.5z M148.2,145.9c-3.4-0.7-6.8,0-9.7,1.9
		c-1.8,1.2-3.2,2.7-4.2,4.5c-0.6-0.8-1.3-1.5-2.2-2.1c-1.9-1.2-4.1-1.6-6.3-1.2c-0.2,0-0.3,0.1-0.5,0.1c-1.7-2.2-4.4-3.5-7.2-3.5
		c-1,0-2,0.2-3,0.5c-0.5-2.8-2-5.2-4.2-6.9l0,0c-2.9-7.7-2.3-14.7-1.8-17.7h0.2c0.7,0,1.3-0.6,1.3-1.3v-5.5c0,0,0,0,0,0
		c0.1,0,0.2-0.1,0.3-0.1c1.6-0.9,12.4-12.6,12.4-36.6c0-2.5-0.2-4.9-0.5-7.1c22.9,7.9,39.3,29.7,39.3,55.2c0,9.1-2.1,17.7-5.8,25.3
		C154.4,148.5,151.6,146.6,148.2,145.9z"/>
	<circle class="st3" cx="103.7" cy="67.7" r="6"/>
</g>
<path class="st3" d="M103.7,97.3c0,0-2.5,0-2.5,6.3c0,6.3,0.6,17.3,2.5,17.3s2.5-11,2.5-17.3C106.2,97.3,103.7,97.3,103.7,97.3z"/>
<path class="st3" d="M127.2,161c-3-0.3-5.7,1.3-7,3.7c-0.9-0.9-2-1.7-3.2-2.2c-2.3-0.9-4.8-0.9-7.1,0.1c-2.3,1-4.1,2.8-5,5.1
	c-0.3,0.8,0.1,1.7,0.8,2c0.8,0.3,1.7-0.1,2-0.8c0.6-1.5,1.8-2.8,3.4-3.4c1.6-0.7,3.3-0.7,4.8,0c2.8,1.1,4.4,4.3,3.8,7.2
	c-0.2,0.8,0.3,1.6,1.1,1.8c0.1,0,0.2,0,0.3,0c0.7,0,1.3-0.5,1.5-1.2c0.4-1.8,0.3-3.5-0.3-5.2c0-0.1,0.1-0.2,0.1-0.3
	c0.2-2.3,2.3-4,4.6-3.7c2,0.2,3.6,1.9,3.8,3.9c0.1,0.8,0.7,1.4,1.5,1.4c0,0,0.1,0,0.1,0c0.8-0.1,1.5-0.8,1.4-1.6
	C133.4,164.2,130.7,161.3,127.2,161z"/>
<path class="st3" d="M100.8,163.8c-2.3-2.4-6-2.6-8.6-0.7c-1.6-1.1-3.5-1.7-5.5-1.7c-5.4,0-9.8,4.4-9.8,9.8c0,0.9,0.1,1.8,0.4,2.7
	c0.2,0.7,0.8,1.1,1.5,1.1c0.1,0,0.3,0,0.4-0.1c0.8-0.2,1.3-1.1,1-1.9c-0.2-0.6-0.3-1.2-0.3-1.9c0-3.7,3-6.8,6.8-6.8
	c3.7,0,6.8,3,6.8,6.8c0,0.8,0.7,1.5,1.5,1.5c0.8,0,1.5-0.7,1.5-1.5c0-2.2-0.8-4.3-2-5.9c1.4-0.7,3.1-0.5,4.2,0.7
	c0.6,0.6,1.5,0.6,2.1,0C101.3,165.3,101.4,164.4,100.8,163.8z"/>
</svg>
