<?xml version="1.0" encoding="utf-8"?>
<!-- Generator: Adobe Illustrator 19.2.1, SVG Export Plug-In . SVG Version: 6.00 Build 0)  -->
<svg version="1.1" id="Ebene_1" xmlns="http://www.w3.org/2000/svg" xmlns:xlink="http://www.w3.org/1999/xlink" x="0px" y="0px"
	 viewBox="0 0 364.5 403.8" style="enable-background:new 0 0 364.5 403.8;" xml:space="preserve">
<style type="text/css">
	.st0{fill:#76B82A;}
	.st1{fill:#0C662F;}
	.st2{fill:#1E672E;}
	.st3{fill:#FFFFFF;}
	.st4{fill:#9D9D9C;}
	.st5{fill:#282727;}
	.st6{opacity:0.5;fill:#E71D73;}
	.st7{fill:#E71D73;}
</style>
<g>
	<path class="st0" d="M182.2,118.8c-56.6,0-102.7,46.1-102.7,102.7s46.1,102.7,102.7,102.7S285,278.2,285,221.6
		S238.9,118.8,182.2,118.8z"/>
	<path class="st1" d="M213.4,175.9c-3.4,10-7.7,17.2-11.2,21.8c2.5,0.6,5.5,1.8,8.1,4c2.2,1.8,3.9,3.7,5.3,5.4
		c2.1,2.7,6.3,1.5,6.7-1.8c0.2-1.4,0.3-3,0.3-4.9C222.6,190.1,217.3,181.1,213.4,175.9z"/>
	<path class="st1" d="M151.2,175.9c-3.9,5.3-9.2,14.3-9.2,24.5c0,1.8,0.1,3.5,0.3,4.9c0.5,3.4,4.7,4.5,6.7,1.8
		c1.4-1.8,3.1-3.7,5.3-5.4c2.7-2.2,5.6-3.3,8.1-4C158.9,193.1,154.7,185.9,151.2,175.9z"/>
	<path class="st3" d="M258.3,198.7c-1.7-0.2-3-1.5-3.2-3.2l-0.6-3.9l-0.6,3.9c-0.2,1.7-1.5,3-3.2,3.2l-3.9,0.6l3.9,0.6
		c1.7,0.2,3,1.5,3.2,3.2l0.6,3.9l0.6-3.9c0.2-1.7,1.5-3,3.2-3.2l3.9-0.6L258.3,198.7z"/>
	<path class="st3" d="M141.4,233c-1.7-0.2-3-1.5-3.2-3.2l-0.6-3.9l-0.6,3.9c-0.2,1.7-1.5,3-3.2,3.2l-3.9,0.6l3.9,0.6
		c1.7,0.2,3,1.5,3.2,3.2l0.6,3.9l0.6-3.9c0.2-1.7,1.5-3,3.2-3.2l3.9-0.6L141.4,233z"/>
	<path class="st3" d="M122.6,167.6c-1.7-0.2-3-1.5-3.2-3.2l-0.6-3.9l-0.6,3.9c-0.2,1.7-1.5,3-3.2,3.2l-3.9,0.6l3.9,0.6
		c1.7,0.2,3,1.5,3.2,3.2l0.6,3.9l0.6-3.9c0.2-1.7,1.5-3,3.2-3.2l3.9-0.6L122.6,167.6z"/>
	<circle class="st3" cx="228.5" cy="235.5" r="1.9"/>
	<circle class="st3" cx="230.3" cy="164.3" r="1.9"/>
	<circle class="st3" cx="262.2" cy="227.7" r="1.9"/>
	<circle class="st3" cx="100.5" cy="241.3" r="1.9"/>
	<circle class="st3" cx="106.3" cy="213.4" r="1.9"/>
	<g>
		<path class="st3" d="M272.8,269.9c-0.2,0.4-0.4,0.7-0.6,1.1C272.4,270.7,272.6,270.3,272.8,269.9z"/>
		<path class="st3" d="M273.9,267.8c0.1-0.1,0.2-0.3,0.2-0.4c0,0,0,0,0,0C274.1,267.5,274,267.7,273.9,267.8z"/>
	</g>
	<g>
		<path class="st3" d="M189.2,213.6h-3.8c1.4-1.9,2.3-5.6,3-11.8c0.1-0.8,0.2-1.5,0.2-2.3c0,0,3.6,0,3.9,0c0.5-0.1,1-0.3,1.2-0.4
			c1.9-1.1,20.4-20.4,20.4-62c0-20-7.3-36.2-14.9-47.7c-2,1.8-7.9,6.3-16.9,6.3c-8.7,0-14.4-4.6-16.6-6.6
			c-7.7,11.5-15.2,27.9-15.2,48c0,41.6,18.6,61,20.4,62c0.3,0.2,0.7,0.3,1.3,0.4c0.4,0,3.9,0,3.9,0c0.1,0.8,0.1,1.5,0.2,2.3
			c0.7,6.2,1.6,9.9,3,11.8H176c0,0,0,0,0,0c0.2,1,0.3,2.2,0.4,3.5c0,0,0,0,0,0c0,0.4,0.1,0.9,0.1,1.4c0,0,0,0.1,0,0.1
			c0.1,2,0.2,4.2,0.1,6.6c0,0,0,0.1,0,0.1c0,0.6,0,1.2-0.1,1.8c0,0,0,0,0,0.1c-0.1,1.9-0.3,3.9-0.7,6.1c0,0,0,0,0,0.1
			c-0.1,0.7-0.2,1.3-0.3,2c0,0.1,0,0.1,0,0.2c-0.1,0.7-0.3,1.4-0.4,2c0,0,0,0.1,0,0.1c-0.3,1.5-0.7,3-1.2,4.5c0,0,0,0,0,0
			c2.6-1.2,5.5-1.9,8.5-1.9c3.2,0,6.3,0.8,9,2.1c0,0,0,0,0,0C187.5,230,188.3,219,189.2,213.6z"/>
		<path class="st3" d="M271.8,271.7c-0.4-0.9-0.8-1.8-1.4-2.6c-2.6-3.9-6.5-6.6-11-7.5c-4.5-0.9-9.1,0-13,2.5
			c-3.9,2.6-6.6,6.5-7.5,11c0,0,0,0,0,0c0.1,0.9,0.1,1.7,0,2.6c-0.1,1.4-1.3,2.4-2.7,2.4c-0.1,0-0.2,0-0.2,0
			c-1.5-0.1-2.5-1.4-2.4-2.9c0.3-3.5-1.3-6.9-4.2-8.8c-2.1-1.4-4.6-1.8-7.1-1.3c-2.5,0.5-4.6,2-6,4.1c-0.8,1.2-2.5,1.6-3.7,0.8
			c-1.2-0.8-1.6-2.5-0.8-3.7c1-1.5,2.1-2.7,3.5-3.7c-2-2.1-4.8-3.3-7.8-3.3c-0.3,0-0.7,0-1,0.1c-0.1,0-0.2,0-0.3,0
			c-0.2,0-0.5,0.1-0.7,0.1c-0.1,0-0.2,0-0.3,0.1c-0.3,0.1-0.5,0.1-0.8,0.2c-0.1,0-0.1,0-0.2,0c-0.3,0.1-0.6,0.2-0.9,0.3
			c-0.1,0-0.2,0.1-0.3,0.1c-0.2,0.1-0.4,0.2-0.5,0.3c-0.1,0.1-0.2,0.1-0.3,0.2c-0.2,0.1-0.4,0.2-0.5,0.3c-0.1,0.1-0.2,0.1-0.3,0.2
			l0,0c-2.8,1.9-4.7,5.2-4.7,8.9c0,1.5-1.2,2.7-2.7,2.7s-2.7-1.2-2.7-2.7c0-5,2.3-9.5,5.9-12.4c-0.5-7.8-7-14-14.9-14
			c-8,0-14.5,6.3-14.9,14.2c3.4,3,5.6,7.3,5.6,12.2c0,1.5-1.2,2.7-2.7,2.7s-2.7-1.2-2.7-2.7c0-3.5-1.7-6.6-4.2-8.6
			c-0.8-0.6-1.8-1.2-2.8-1.5c-0.1,0-0.2-0.1-0.3-0.1c-0.2-0.1-0.3-0.1-0.5-0.2c-0.2,0-0.3-0.1-0.5-0.1c-0.2,0-0.3-0.1-0.5-0.1
			c-0.2,0-0.4-0.1-0.6-0.1c-0.1,0-0.2,0-0.4,0c-0.3,0-0.7-0.1-1-0.1c-3,0-5.7,1.2-7.8,3.3c1.4,1,2.5,2.3,3.5,3.7
			c0.8,1.2,0.5,2.9-0.8,3.7c-1.2,0.8-2.9,0.5-3.7-0.8c-1.4-2.1-3.5-3.5-6-4.1c-2.5-0.5-5,0-7.1,1.3c-2.9,1.9-4.6,5.3-4.2,8.8
			c0.1,1.5-0.9,2.8-2.4,2.9c-0.1,0-0.2,0-0.2,0c-1.4,0-2.5-1-2.7-2.4c-0.1-0.9-0.1-1.8,0-2.6c0,0,0,0,0,0c-0.9-4.5-3.6-8.4-7.5-11
			c-3.9-2.6-8.5-3.5-13-2.5c-4.5,0.9-8.4,3.6-11,7.5c-0.5,0.8-0.9,1.5-1.3,2.3c0,0.1-0.1,0.2-0.1,0.3c16.4,29.2,46.6,49.5,81.7,52.2
			c2.6,0.2,5.2,0.3,7.9,0.3c1.3,0,2.7,0,4-0.1C223,322.8,254.8,302,271.8,271.7z"/>
	</g>
	<g>
		<path class="st1" d="M213.1,112.4c-6.3-20.9-19.3-35.3-25.8-41.6c-1.3-1.3-3.1-2-5-2c-1.9,0-3.6,0.7-5,2
			c-6.5,6.3-19.5,20.7-25.8,41.6c-47.7,13.4-82.6,57.2-82.6,109.1c0,62.6,50.8,113.4,113.4,113.4s113.4-50.8,113.4-113.4
			C295.6,169.6,260.7,125.9,213.1,112.4z M165.6,89c2.2,2.1,7.9,6.6,16.6,6.6c9,0,15-4.5,16.9-6.3c7.6,11.5,14.9,27.7,14.9,47.7
			c0,41.6-18.6,61-20.4,62c-0.3,0.2-0.7,0.3-1.2,0.4c-0.5,0-3.9,0-3.9,0c-0.1,0.8-0.1,1.5-0.2,2.3c-0.7,6.2-1.6,9.9-3,11.8h3.8
			c-0.8,5.4-1.7,16.4,2.2,28.9c-2.7-1.4-5.8-2.1-9-2.1c-3,0-5.9,0.7-8.5,1.9c3.8-12.4,3-23.2,2.1-28.6h3.2c-1.4-1.9-2.3-5.6-3-11.8
			c-0.1-0.8-0.2-1.5-0.2-2.3c0,0-3.5,0-3.9,0c-0.5-0.1-1-0.3-1.3-0.4c-1.9-1.1-20.4-20.4-20.4-62C150.5,116.9,157.9,100.5,165.6,89z
			 M89.7,266.1L89.7,266.1c-6.5-13.5-10.2-28.6-10.2-44.5c0-44.9,29-83.2,69.2-97.1c-0.6,4-0.9,8.2-0.9,12.6
			c0,42.2,18.9,62.7,21.8,64.3c0.2,0.1,0.4,0.2,0.7,0.3c0,0,0,0,0,0v9.7c0,1.2,1,2.3,2.3,2.3h0.8c0.9,5.3,1.9,17.4-2.9,30.7
			c-4,3-6.9,7.5-7.9,12.6c-1.7-0.6-3.6-1-5.5-1c-5,0-9.7,2.3-12.7,6.2c-0.3-0.1-0.6-0.2-0.9-0.2c-3.9-0.8-7.8-0.1-11.1,2.1
			c-1.5,1-2.8,2.2-3.8,3.6c-1.8-3.2-4.3-5.9-7.4-7.9c-5.1-3.3-11.1-4.5-17-3.3C98.1,257.6,93,261.1,89.7,266.1z M92.7,271.7
			L92.7,271.7C92.7,271.7,92.7,271.7,92.7,271.7C92.7,271.7,92.7,271.7,92.7,271.7z M182.2,324.3c-38.4,0-72-21.2-89.6-52.5
			c0.4-0.9,0.9-1.8,1.4-2.6c2.6-3.9,6.5-6.6,11-7.5c4.5-0.9,9.1,0,13,2.5c3.9,2.6,6.6,6.5,7.5,11c0,0,0,0,0,0
			c-0.1,0.9-0.1,1.7,0,2.6c0.1,1.4,1.3,2.4,2.7,2.4c0.1,0,0.2,0,0.2,0c1.5-0.1,2.5-1.4,2.4-2.9c-0.3-3.5,1.3-6.9,4.2-8.8
			c2.1-1.4,4.6-1.8,7.1-1.3c2.5,0.5,4.6,2,6,4.1c0.8,1.2,2.5,1.6,3.7,0.8c1.2-0.8,1.6-2.5,0.8-3.7c-1-1.5-2.1-2.7-3.5-3.7
			c2-2.1,4.8-3.3,7.8-3.3c5.9,0,10.8,4.8,10.8,10.8c0,1.5,1.2,2.7,2.7,2.7s2.7-1.2,2.7-2.7c0-4.9-2.2-9.2-5.6-12.2
			c0.4-7.9,6.9-14.2,14.9-14.2c7.9,0,14.4,6.2,14.9,14c-3.6,3-5.9,7.4-5.9,12.4c0,1.5,1.2,2.7,2.7,2.7s2.7-1.2,2.7-2.7
			c0-5.9,4.8-10.8,10.8-10.8c3,0,5.7,1.2,7.8,3.3c-1.4,1-2.5,2.3-3.5,3.7c-0.8,1.2-0.5,2.9,0.8,3.7c1.2,0.8,2.9,0.5,3.7-0.8
			c1.4-2.1,3.5-3.5,6-4.1c2.5-0.5,5-0.1,7.1,1.3c2.9,1.9,4.6,5.3,4.2,8.8c-0.1,1.5,0.9,2.8,2.4,2.9c0.1,0,0.2,0,0.2,0
			c1.4,0,2.5-1,2.7-2.4c0.1-0.9,0.1-1.8,0-2.6c0,0,0,0,0,0c0.9-4.5,3.6-8.4,7.5-11c3.9-2.6,8.5-3.5,13-2.5c4.5,0.9,8.4,3.6,11,7.5
			c0.5,0.8,1,1.7,1.4,2.6l0,0C254.2,303.1,220.7,324.3,182.2,324.3z M260.5,256.4c-5.9-1.2-12,0-17,3.3c-3.1,2.1-5.6,4.8-7.4,7.9
			c-1-1.4-2.3-2.6-3.8-3.6c-3.3-2.2-7.2-2.9-11.1-2.1c-0.3,0.1-0.6,0.2-0.9,0.2c-3-3.9-7.7-6.2-12.7-6.2c-1.8,0-3.6,0.3-5.2,0.9
			c-0.9-4.9-3.6-9.1-7.3-12.1c0,0,0,0,0,0c-5.1-13.5-4-25.8-3.1-31.2h0.4c1.2,0,2.3-1,2.3-2.3v-9.7c0,0,0-0.1,0-0.1
			c0.2-0.1,0.4-0.2,0.5-0.2c2.9-1.6,21.8-22.1,21.8-64.3c0-4.4-0.3-8.5-0.9-12.5c40.2,13.9,69.2,52.2,69.2,97.1
			c0,15.9-3.7,31.1-10.2,44.5C271.5,261.1,266.4,257.6,260.5,256.4z"/>
		<circle class="st1" cx="182.3" cy="119" r="10.6"/>
	</g>
	<path class="st1" d="M182.3,171c0,0-4.3,0-4.3,11.1c0,11.1,1.1,30.5,4.3,30.5s4.3-19.4,4.3-30.5C186.6,171,182.3,171,182.3,171z"/>
	<path class="st1" d="M223.5,283c-5.2-0.5-10,2.2-12.4,6.5c-1.5-1.6-3.4-2.9-5.6-3.8c-4-1.6-8.5-1.6-12.6,0.1
		c-4.1,1.7-7.2,4.9-8.8,8.9c-0.6,1.4,0.1,2.9,1.5,3.5c1.4,0.6,2.9-0.1,3.5-1.5c1.1-2.7,3.2-4.9,6-6c2.7-1.2,5.8-1.2,8.5-0.1
		c5,2,7.8,7.5,6.6,12.7c-0.3,1.4,0.6,2.9,2,3.2c0.2,0,0.4,0.1,0.6,0.1c1.2,0,2.3-0.8,2.6-2.1c0.7-3.1,0.5-6.2-0.5-9.1
		c0.1-0.2,0.1-0.4,0.1-0.6c0.4-4,4-7,8-6.6c3.5,0.4,6.4,3.3,6.6,6.8c0.1,1.4,1.3,2.5,2.7,2.5c0.1,0,0.1,0,0.2,0
		c1.5-0.1,2.6-1.4,2.5-2.8C234.5,288.6,229.7,283.6,223.5,283z"/>
	<path class="st1" d="M177.1,287.9c-4.1-4.2-10.6-4.6-15.2-1.2c-2.8-1.9-6.1-3-9.8-3c-9.5,0-17.2,7.7-17.2,17.2
		c0,1.6,0.2,3.2,0.7,4.7c0.3,1.2,1.4,1.9,2.6,1.9c0.2,0,0.5,0,0.7-0.1c1.4-0.4,2.2-1.9,1.8-3.3c-0.3-1.1-0.5-2.2-0.5-3.3
		c0-6.6,5.3-11.9,11.9-11.9c6.6,0,11.9,5.3,11.9,11.9c0,1.5,1.2,2.7,2.7,2.7s2.7-1.2,2.7-2.7c0-3.9-1.3-7.5-3.5-10.4
		c2.4-1.3,5.4-0.9,7.4,1.1c1,1.1,2.7,1.1,3.8,0.1C178.1,290.6,178.2,288.9,177.1,287.9z"/>
</g>
</svg>
