<svg height="24" viewBox="0 0 24 24" width="24" xmlns="http://www.w3.org/2000/svg"><path d="m12 2c2.2754159 0 4.5508318.19175991 6.8262478.57527974l.8532799.15281399c.8075906.15313371 1.4392519.78479507 1.5923854 1.59238572.4853913 2.55984018.7280869 5.11968037.7280869 7.67952055 0 2.2754159-.1917599 4.5508318-.5752797 6.8262478l-.152814.8532799c-.1531337.8075906-.7847951 1.4392519-1.5923857 1.5923854-2.5598402.4853913-5.1196804.7280869-7.6795206.7280869-2.27541592 0-4.55083185-.1917599-6.82624777-.5752797l-.85327996-.152814c-.80759062-.1531337-1.43925185-.7847951-1.59238541-1.5923857-.48539124-2.5598402-.72808686-5.1196804-.72808686-7.6795206 0-2.27541592.19175991-4.55083185.57527974-6.82624777l.15281399-.85327996c.15313371-.80759062.78479507-1.43925185 1.59238572-1.59238541 2.55984018-.48539124 5.11968037-.72808686 7.67952055-.72808686zm-4.29761905 8h-1.4047619c-.08730159 0-.15873016.0314103-.21428572.0942308-.04166666.0471154-.06770833.1043269-.078125.1716346l-.00520833.0706731v6.326923c0 .0897436.02777778.1682693.08333333.235577.04166667.0504807.09226191.0820312.15178572.0946514l.0625.0063101h1.4047619c.08730159 0 .15873016-.0336538.21428572-.1009615.03703703-.0448718.06172839-.0947294.07407407-.1495727l.00925926-.0860043v-6.326923c0-.098718-.02777778-.1794872-.08333333-.2423077-.04166667-.0471154-.09226191-.0765625-.15178572-.0883414zm7.30893985 0c-.573585 0-1.0716982.0924528-1.4943397.2773585-.3522012.154088-.6450035.3387491-.8784067.5539832l-.132914.1328092v-.5018867c0-.0968554-.0377359-.1761007-.1132076-.2377359-.0566037-.0462264-.1231132-.0751179-.1995283-.0866745l-.079717-.0057783h-1.735849c-.1106918 0-.2012579.0308176-.2716981.0924528-.0528302.0462264-.0858491.1023585-.0990566.1683962l-.0066038.0693397v6.2075471c0 .0880503.0352201.1650944.1056604.2311321.0528302.0495283.1169811.0804835.1924528.0928656l.0792453.006191h1.8867924c.100629 0 .1886793-.0330189.264151-.0990566.0566038-.0495283.0919811-.1052476.1061321-.167158l.0070754-.0639741v-3.6056604c0-.4138364.1232705-.7330188.3698114-.9575471.2465408-.2245283.5761006-.3367925.9886792-.3367925.4427673 0 .7773585.1122642 1.0037736.3367925.1940701.1924528.3049673.4544474.3326916.7859838l.006931.1715633v3.6056604c0 .0880503.0377359.1650944.1132076.2311321.0566037.0495283.120283.0804835.1910377.0928656l.0731132.006191h1.9018868c.1106918 0 .2012579-.0330189.2716981-.0990566.0528302-.0495283.0858491-.1052476.0990566-.167158l.0066038-.0639741v-3.6849056c0-.6515724-.1283019-1.1974843-.3849057-1.6377359-.2566037-.4402516-.608805-.7748428-1.0566037-1.0037736-.4477988-.2289308-.963522-.3433962-1.5471698-.3433962zm-7.30543845-3h-1.4117647c-.08627451 0-.15686275.03571429-.21176471.10714286-.03660131.04761904-.06100218.1005291-.07320261.15873016l-.00915033.09126984v1.28571428c0 .10476191.02745098.19047619.08235294.25714286.04117647.05.09117647.08125.15.09375l.06176471.00625h1.4117647c.07843138 0 .14705883-.03333333.20588236-.1.04411764-.05.07169117-.11071429.08272058-.18214286l.00551471-.075v-1.28571428c0-.0952381-.02941176-.17857143-.08823529-.25-.04411765-.05357143-.09375-.08705357-.14889706-.10044643z" fill-rule="evenodd"/></svg>