<svg height="24" viewBox="0 0 24 24" width="24" xmlns="http://www.w3.org/2000/svg"><path d="m12 2c1.8029208 0 3.6055258.14775024 5.414744.44454075l.7758044.1363246.7603934.15144868c1.1630118.24513036 2.0716389 1.15375825 2.3167682 2.31677029.4880772 2.3156738.73229 4.63300086.73229 6.95091568 0 1.8029208-.1477502 3.6055258-.4445407 5.414744l-.1363247.7758044-.1514486.7603934c-.2451304 1.1630118-1.1537583 2.0716389-2.3167703 2.3167682-2.3156738.4880772-4.6330009.73229-6.9509157.73229-1.8029208 0-3.60552577-.1477502-5.41474404-.4445407l-.77580436-.1363247-.76039335-.1514486c-1.16301182-.2451304-2.07163893-1.1537583-2.31676828-2.3167703-.48807716-2.3156738-.73228997-4.6330009-.73228997-6.9509157 0-1.8029208.14775024-3.60552577.44454075-5.41474404l.1363246-.77580436.15144868-.76039335c.24513036-1.16301182 1.15375825-2.07163893 2.31677029-2.31676828 2.3156738-.48807716 4.63300086-.73228997 6.95091568-.73228997zm0 2c-2.17853573 0-4.35765923.22964815-6.53843598.68929291-.34459198.07263004-.62218649.32000634-.7354258.63863691l-.03457044.12262438-.1470516.73830152c-.36308421 1.93796939-.54451618 3.87476308-.54451618 5.81114428 0 2.1785357.22964815 4.3576592.68929291 6.538436.07263004.344592.32000634.6221865.63863691.7354258l.12262438.0345704.73830152.1470516c1.93796939.3630842 3.87476308.5445162 5.81114428.5445162 2.1785357 0 4.3576592-.2296481 6.538436-.6892929.344592-.07263.6221865-.3200063.7354258-.6386369l.0345704-.1226244.1470516-.7383015c.3630842-1.9379694.5445162-3.8747631.5445162-5.8111443 0-2.17853573-.2296481-4.35765923-.6892929-6.53843598-.07263-.34459198-.3200063-.62218649-.6386369-.7354258l-.1226244-.03457044-.7383015-.1470516c-1.9379694-.36308421-3.8747631-.54451618-5.8111443-.54451618zm0 3c1.578299 0 2.8321708.41795727 3.7071068 1.29289322.7875821.78758209 1.2052622 1.88344378 1.2805706 3.25326998l.0109072.297715.0014154.1561218c0 1.578299-.4179573 2.8321708-1.2928932 3.7071068-.7875821.7875821-1.8834438 1.2052622-3.25327 1.2805706l-.297715.0109072-.1561218.0014154c-1.578299 0-2.83217083-.4179573-3.70710678-1.2928932-.78758209-.7875821-1.20526224-1.8834438-1.28057064-3.25327l-.01090717-.297715-.00141541-.1561218c0-1.578299.41795727-2.83217083 1.29289322-3.70710678.78758209-.78758209 1.88344378-1.20526224 3.25326998-1.28057064l.297715-.01090717zm0 2-.1279118.00119379c-1.02045.01925377-1.7248688.26580033-2.16498142.70591299-.42313604.42313602-.66764025 1.09143922-.70275252 2.04043152l-.00439793.2431163.00123746.1372572c.01925377 1.02045.26580033 1.7248688.70591299 2.1649814.42313602.4231361 1.09143922.6676403 2.04043152.7027525l.2431163.004398.1372572-.0012375c1.02045-.0192538 1.7248688-.2658003 2.1649814-.705913.4231361-.423136.6676403-1.0914392.7027525-2.0404315l.004398-.2431163-.0012375-.1372572c-.0192538-1.02045-.2658003-1.7248688-.705913-2.16498142-.4583974-.45839738-1.2045256-.70710678-2.2928932-.70710678zm5.5-3.5c.3333333 0 .5833333.08333333.75.25.1547619.1547619.2376701.38137755.2487245.67984694l.0012755.07015306c0 .33333333-.0833333.58333333-.25.75-.1547619.1547619-.3813776.23767007-.6798469.24872449l-.0701531.00127551c-.3333333 0-.5833333-.08333333-.75-.25-.1547619-.1547619-.2376701-.38137755-.2487245-.67984694l-.0012755-.07015306c0-.33333333.0833333-.58333333.25-.75.1547619-.1547619.3813776-.23767007.6798469-.24872449z" fill-rule="evenodd"/></svg>