<svg height="64" viewBox="0 0 64 64" width="64" xmlns="http://www.w3.org/2000/svg"><path d="m31.9992442 0c14.3597093 0 26.0007558 11.5913452 26.0007558 25.8889934 0 6.0432738-2.0845349 11.5988711-5.569593 16.0037629l.0113372-.0030103-15.6143605 19.7719661c-1.1299418 1.4208843-2.8690697 2.3382879-4.8266279 2.3382879-1.909186 0-3.6150581-.8684854-4.7404651-2.2299153l-15.73-19.9157103c-3.45860465-4.4018815-5.5302907-9.9416745-5.5302907-15.965381 0-14.2976482 11.6402907-25.8889934 25.9992442-25.8889934zm0 6.4c-10.7922675 0-19.5725582 8.7428034-19.5725582 19.4889934 0 4.3981185 1.4413373 8.5516463 4.1668024 12.0105362.0619767.0790217.121686.1587959.1791279.2400753l15.2281395 19.2797742 15.1986628-19.2444026c.0581977-.082032.1194186-.1625588.1821512-.242333 2.7413372-3.4664158 4.1909883-7.6312324 4.1909883-12.0436501 0-10.74619-8.7802907-19.4889934-19.5733139-19.4889934zm-1.1378779 10.8097084c.6265697-1.3659455 1.6499418-1.3659455 2.275 0l2.3037209 4.7992474h4.8168023c1.515407 0 1.946221.925682.9561047 2.0620884l-.0347675.0444026-3.6740116 4.4267169 1.8653489 5.4193791c.4890116 1.4178739-.2161628 2.0312324-1.5758721 1.357667l-5.793314-2.8711195-5.797093 2.8711195c-1.352907.6735654-2.0603489.0602069-1.5728489-1.357667l1.8661047-5.4193791-3.6717442-4.4267169-.0370349-.0444026c-.9908721-1.1364064-.5600581-2.0620884.9545931-2.0620884h4.8190697z" fill-rule="evenodd"/></svg>