<svg height="64" viewBox="0 0 64 64" width="64" xmlns="http://www.w3.org/2000/svg"><path d="m44.0296217 23.7604511 9.916625 9.8893193c2.7383377 2.730886 2.7383377 7.1584334 0 9.8893194l-19.8456885 19.7786386c-.9130456.9096955-2.392496.9096955-3.3055416 0l-9.916625-9.8893193c-.9122072-.9105316-.9122072-2.3859083 0-3.2964398l23.1387916-23.0750784h.0124385c.9122073-.9105316.9122073-2.3859083 0-3.2964398zm-14.1395088-23.07817951c.9130456-.90969545 2.392496-.90969545 3.3055416 0l9.916625 9.90172361c.9122072.9105315.9122072 2.3859083 0 3.2964398l-23.1419012 23.0626741-.1187378.1275584c-.7915847.9159313-.7520055 2.2997377.1187378 3.1688814l-9.916625-9.8893193c-2.73833773-2.730886-2.73833773-7.1584334 0-9.8893194zm12.0249573 23.55884381c.4726989-.0008443.8991475.2829722 1.0797446.71861.1805971.4356377.079611.9369041-.2556915 1.2691792l-13.5642264 13.526877-7.0961863.0031014c-.4731536.0003208-.8998603-.2837705-1.0809719-.7196858-.1811116-.4359154-.0809221-.9377146.2538091-1.2712029l13.5642264-13.5268789z"/></svg>