<svg height="64" viewBox="0 0 64 64" width="64" xmlns="http://www.w3.org/2000/svg"><path d="m5.00283181 5.92243459c.00011441-.82838327.00194491-.83032515.80908475-.83078206 2.11194915-.00114228 4.22378394-.00045692 6.33573304-.00034269 1.0653559 0 1.0656992.00011423 1.0656992 1.03856325 0 12.42369291.0480508 24.84761431-.0306611 37.27073611-.0223093 3.5178874 2.1831102 6.5151224 5.9655128 7.1056825 2.4757627.3865484 4.9013008.1743123 7.223644-.7830347 1.7889788-.7374575 3.2007585-1.9308001 3.866606-3.801973.2299576-.6459608.3278898-1.3700537.3328093-2.0595354.0297457-4.1599644.0145296-8.3202715.0155593-12.4805786.0002288-.8554553.0026314-.8578541.8579364-.8580826 4.0526314-.001028 8.1068644-.0747053 12.1572077.0217034 3.6070169.0856712 6.2715508-2.0741566 7.0634745-5.4063089.5531568-2.3278575.6669916-4.679246-.3409322-6.9296567-1.1433813-2.552773-3.2784406-3.8678828-5.9200932-4.444507-.7549703-.1648314-1.5450635-.2357671-2.3192542-.2374806-7.6104534-.01702-15.2207924-.010052-22.8312458-.010509-.884822 0-.8861949-.0013707-.8864237-.8771587-.0008009-2.2795389.0135-4.55930635-.0101822-6.83861685-.0054915-.54281265.1637161-.72020912.7152712-.71918106 7.9909703.01473544 15.9920084-.2389655 23.9700508.08178742 7.6748644.30853051 14.5698178 4.8194041 15.7239534 13.79363229.5148305 4.0034717.2125678 7.9277833-1.3895847 11.6781252-1.6332712 3.823448-4.5325678 6.3025437-8.4080975 7.6953287-2.099822.7545918-4.2792712 1.0415332-6.5021949 1.0447316-.9895042.001485-1.9791229.015535-2.9680551-.0051403-.4736441-.0100521-.633928.1810518-.6284364.642077.0173898 1.4814262.0805423 2.9676499-.0078941 4.4441643-.3005466 5.0169047-2.2881356 9.1380315-6.6457754 11.8885336-2.1217882 1.3393262-4.499161 2.0149863-6.9760678 2.3580137-3.1930932.4420634-6.3723432.4405784-9.5161271-.3422278-5.7195382-1.4240836-9.58957631-5.6592102-10.48286445-11.4811956-.14907203-.9710544-.22549576-1.9626698-.22869915-2.9449185-.02036441-6.1548466-.01029661-12.3096932-.01029661-18.4645397 0-6.5158079-.00022881-13.0315015.00034322-19.54730931z" fill="#182b52" fill-rule="evenodd"/></svg>