<svg xmlns="http://www.w3.org/2000/svg" width="64" height="64" fill="currentColor" viewBox="0 0 64 64">
  <g clip-path="url(#a)">
    <path fill="#475569" d="m44.03 23.76 9.916 9.89a6.98 6.98 0 0 1 0 9.89L34.101 63.317c-.913.91-2.393.91-3.306 0l-9.917-9.89a2.327 2.327 0 0 1 0-3.296l23.14-23.075h.012a2.327 2.327 0 0 0 0-3.296ZM29.89.683a2.343 2.343 0 0 1 3.306 0l9.916 9.902c.913.91.913 2.386 0 3.296L19.97 36.943l-.118.128c-.792.916-.752 2.3.118 3.169l-9.916-9.89a6.98 6.98 0 0 1 0-9.89L29.89.683Zm12.025 23.56a1.16 1.16 0 0 1 .824 1.988L29.175 39.755l-7.096.003c-.473 0-.9-.284-1.081-.72a1.164 1.164 0 0 1 .253-1.271L34.816 24.24h7.1Z"/>
  </g>
  <defs>
    <clipPath id="a">
      <path fill="#fff" d="M0 0h64v64H0z"/>
    </clipPath>
  </defs>
</svg>
