<svg xmlns="http://www.w3.org/2000/svg" width="64" height="64" fill="currentColor" viewBox="0 0 64 64">
  <g clip-path="url(#a)">
    <path fill="#475569" fill-rule="evenodd" d="M32 0c14.359 0 26 11.591 26 25.889a25.701 25.701 0 0 1-5.57 16.004l.012-.003-15.615 19.772a6.154 6.154 0 0 1-9.567.108L11.53 41.854A25.754 25.754 0 0 1 6 25.89C6 11.591 17.64 0 32 0Zm0 6.4c-10.793 0-19.573 8.743-19.573 19.489 0 4.398 1.441 8.552 4.166 12.01.063.08.122.16.18.24L32 57.42l15.198-19.244a6.06 6.06 0 0 1 .183-.242 19.235 19.235 0 0 0 4.19-12.044C51.573 15.143 42.793 6.4 32 6.4Zm-1.14 10.81c.627-1.366 1.65-1.366 2.275 0l2.304 4.799h4.817c1.515 0 1.946.926.956 2.062l-.035.044-3.674 4.427 1.866 5.42c.489 1.417-.217 2.03-1.576 1.357L32 32.45l-5.797 2.87c-1.353.674-2.06.06-1.573-1.358l1.867-5.419-3.672-4.427-.037-.044c-.991-1.136-.56-2.062.954-2.062h4.82l2.3-4.8Z" clip-rule="evenodd"/>
  </g>
  <defs>
    <clipPath id="a">
      <path fill="#fff" d="M0 0h64v64H0z"/>
    </clipPath>
  </defs>
</svg>
