<svg xmlns="http://www.w3.org/2000/svg" width="64" height="64" fill="currentColor" viewBox="0 0 64 64">
  <g clip-path="url(#a)">
    <path fill="#475569" fill-rule="evenodd" d="M32 0c17.673 0 32 14.325 32 32 0 17.673-14.327 32-32 32C14.328 64 0 49.673 0 32 0 14.324 14.327 0 32 0Zm-.265 11.732c-11.137 0-20.164 9.028-20.164 20.165 0 11.137 9.027 20.163 20.164 20.163 11.136 0 20.165-9.026 20.165-20.163s-9.03-20.165-20.165-20.165Zm4.952 6.412c3.315 0 7.777 1.34 7.777 5.356 0 6.521-9.249 9.125-15.115 10.6l-.517.128-1.197.3c-.192 1.21-.383 2.421-.383 3.633 0 2.485 1.338 4.78 4.08 4.78 3.57 0 6.439-3.442 8.542-5.992l1.595 1.212c-2.933 4.334-7.014 8.287-12.495 8.287-5.803 0-9.18-3.633-9.18-9.499 0-9.497 7.011-18.805 16.893-18.805Zm-.638 1.912c-4.59 0-6.948 8.925-7.84 12.431 4.27-1.275 10.2-4.78 10.2-9.817 0-1.466-.83-2.614-2.36-2.614Z" clip-rule="evenodd"/>
  </g>
  <defs>
    <clipPath id="a">
      <path fill="#fff" d="M0 0h64v64H0z"/>
    </clipPath>
  </defs>
</svg>
