<svg width="48" height="64" viewBox="0 0 48 64" fill="none" xmlns="http://www.w3.org/2000/svg">
<path d="M36.0296 23.7605L45.9462 33.6498C48.6846 36.3807 48.6846 40.8082 45.9462 43.5391L26.1006 63.3177C25.1875 64.2274 23.7081 64.2274 22.795 63.3177L12.8784 53.4284C11.9662 52.5179 11.9662 51.0425 12.8784 50.132L36.0172 27.0569H36.0296C36.9418 26.1464 36.9418 24.671 36.0296 23.7605ZM21.8901 0.682272C22.8032 -0.227424 24.2826 -0.227424 25.1957 0.682272L35.1123 10.584C36.0245 11.4945 36.0245 12.9699 35.1123 13.8804L11.9704 36.9431L11.8516 37.0707C11.0601 37.9866 11.0996 39.3704 11.9704 40.2395L2.05375 30.3502C-0.684584 27.6193 -0.684584 23.1918 2.05375 20.4609L21.8901 0.682272ZM33.9151 24.2411C34.3878 24.2403 34.8142 24.5241 34.9948 24.9597C35.1754 25.3954 35.0744 25.8966 34.7391 26.2289L21.1749 39.7558L14.0787 39.7589C13.6056 39.7592 13.1788 39.4751 12.9977 39.0392C12.8166 38.6033 12.9168 38.1015 13.2515 37.768L26.8158 24.2411H33.9151Z" fill="#334155"/>
</svg>
