<svg xmlns="http://www.w3.org/2000/svg" width="109" height="64" fill="currentColor" viewBox="0 0 109 64">
  <g clip-path="url(#a)">
    <path fill="#475569" d="M54.207 0a3.85 3.85 0 0 1 3.41 2.05 3.877 3.877 0 0 1-.22 3.974L33.842 40.498a3.875 3.875 0 0 1-3.189 1.685 3.838 3.838 0 0 1-2.167-.674 3.851 3.851 0 0 1-1.011-5.352l8.564-12.54c-3.006-2.127-6.58-3.262-10.337-3.262a17.884 17.884 0 0 0-12.725 5.264 17.827 17.827 0 0 0-5.27 12.704c0 4.803 1.869 9.316 5.27 12.713a17.883 17.883 0 0 0 12.725 5.265 17.79 17.79 0 0 0 7.003-1.415c2.784-1.174 5.25-3.292 7.139-6.121l24.835-37.341C69.159 4.687 76.47.423 84.216.038 84.659.01 85.092 0 85.536 0c6.733 0 13.062 2.57 17.869 7.247.039.029.077.067.116.106.057.048.116.096.173.154l.01.02c.096.095.183.191.27.287 5.481 5.775 5.375 14.918-.28 20.577-2.88 2.877-6.666 4.311-10.452 4.311A14.716 14.716 0 0 1 82.8 28.391a3.837 3.837 0 0 1 0-5.448 3.852 3.852 0 0 1 5.442 0c2.755 2.753 7.245 2.753 10 0 2.755-2.752 2.755-7.237 0-9.989-.02-.02-.04-.038-.058-.058A17.891 17.891 0 0 0 85.535 7.7c-.308 0-.616.01-.925.03-5.327.269-10.375 3.243-13.515 7.958L46.26 53.029c-2.717 4.09-6.368 7.18-10.559 8.95A25.57 25.57 0 0 1 25.702 64c-6.869 0-13.323-2.666-18.169-7.517C2.678 51.633 0 45.175 0 38.323s2.678-13.3 7.533-18.151c4.846-4.85 11.3-7.517 18.17-7.517 5.326 0 10.404 1.608 14.68 4.6L46.916 7.7H25.702a3.85 3.85 0 1 1 0-7.699h28.505Zm49.922 34.474a3.856 3.856 0 0 1 3.853 3.85c0 6.86-2.668 13.309-7.523 18.16C95.604 61.333 89.159 64 82.29 64s-13.323-2.666-18.179-7.517a25.753 25.753 0 0 1-4.874-6.794 3.833 3.833 0 0 1 1.753-5.149 3.842 3.842 0 0 1 5.154 1.742 18.097 18.097 0 0 0 3.42 4.754 17.883 17.883 0 0 0 12.726 5.265c4.807 0 9.325-1.868 12.716-5.265a17.848 17.848 0 0 0 5.269-12.713 3.864 3.864 0 0 1 3.854-3.85Z"/>
  </g>
  <defs>
    <clipPath id="a">
      <path fill="#fff" d="M0 0h109v64H0z"/>
    </clipPath>
  </defs>
</svg>
