<svg xmlns="http://www.w3.org/2000/svg" width="54" height="54" fill="currentColor" viewBox="0 0 54 54">
  <path fill-rule="evenodd" d="M.003.922c0-.828.002-.83.809-.83h6.336c1.065 0 1.065 0 1.065 1.038 0 12.424.048 24.848-.03 37.27-.023 3.519 2.183 6.516 5.965 7.106 2.476.387 4.901.175 7.224-.783 1.789-.737 3.2-1.93 3.866-3.802.23-.646.328-1.37.333-2.06.03-4.16.015-8.32.016-12.48 0-.855.003-.858.858-.858 4.052 0 8.107-.075 12.157.022 3.607.085 6.272-2.074 7.063-5.407.554-2.327.667-4.679-.34-6.93-1.144-2.552-3.279-3.867-5.92-4.444a11.062 11.062 0 0 0-2.32-.237c-7.61-.017-15.22-.01-22.831-.01-.885 0-.886-.002-.886-.878-.001-2.28.013-4.56-.01-6.838-.006-.543.163-.72.715-.72 7.99.015 15.992-.239 23.97.082 7.675.309 14.57 4.82 15.724 13.794.514 4.003.212 7.928-1.39 11.678-1.633 3.823-4.533 6.302-8.408 7.695-2.1.755-4.28 1.042-6.502 1.045-.99.002-1.98.016-2.968-.005-.474-.01-.634.18-.629.642.018 1.481.08 2.968-.008 4.444-.3 5.017-2.288 9.138-6.646 11.889-2.121 1.339-4.499 2.015-6.976 2.358-3.193.442-6.372.44-9.516-.343-5.72-1.424-9.59-5.659-10.483-11.48a19.907 19.907 0 0 1-.228-2.946c-.02-6.155-.01-12.31-.01-18.464V.922Z" clip-rule="evenodd"/>
</svg>
