<svg width="64" height="64" viewBox="0 0 64 64" fill="none" xmlns="http://www.w3.org/2000/svg">
<path d="M7.78394 48.4326V29.1173C7.78394 28.3212 8.42929 27.6758 9.22538 27.6758C10.0215 27.6758 10.6668 28.3212 10.6668 29.1173V48.4326C10.6668 55.2789 16.2169 60.829 23.0632 60.829H48.4326C55.2789 60.829 60.829 55.2789 60.829 48.4326V23.0632C60.829 16.2169 55.2789 10.6668 48.4326 10.6668H29.1173C28.3212 10.6668 27.6758 10.0215 27.6758 9.22538C27.6758 8.42929 28.3212 7.78394 29.1173 7.78394H48.4326C56.8711 7.78394 63.7119 14.6247 63.7119 23.0632V48.4326C63.7119 56.8711 56.8711 63.7119 48.4326 63.7119H23.0632C14.6247 63.7119 7.78394 56.8711 7.78394 48.4326Z" fill="#334155"/>
<path d="M45.3445 48.7204V22.5208H50.9534V48.7204H45.3445Z" fill="#334155"/>
<path d="M17.2971 48.7204L26.7438 22.5208H33.3859L42.8325 48.7204H37.0022L35.0834 43.1484H25.0094L23.0906 48.7204H17.2971ZM26.5961 38.5357H33.5335L30.0648 28.4249L26.5961 38.5357Z" fill="#334155"/>
<path fill-rule="evenodd" clip-rule="evenodd" d="M9.22522 0C9.42569 4.13301e-05 9.62068 0.0653724 9.78071 0.186108C9.94073 0.306843 10.0571 0.476413 10.1121 0.669161L11.1122 4.16995C11.3276 4.92389 11.7315 5.61049 12.286 6.16492C12.8404 6.71935 13.527 7.1233 14.281 7.33862L17.7819 8.33867C17.9746 8.39385 18.144 8.51024 18.2646 8.67025C18.3852 8.83026 18.4504 9.02518 18.4504 9.22556C18.4504 9.42593 18.3852 9.62085 18.2646 9.78086C18.144 9.94087 17.9746 10.0573 17.7819 10.1124L14.281 11.1125C13.527 11.3278 12.8404 11.7318 12.286 12.2862C11.7315 12.8406 11.3276 13.5272 11.1122 14.2812L10.1121 17.782C10.057 17.9746 9.94056 18.144 9.78055 18.2646C9.62053 18.3852 9.4256 18.4504 9.22522 18.4504C9.02485 18.4504 8.82991 18.3852 8.6699 18.2646C8.50989 18.144 8.39349 17.9746 8.33831 17.782L7.33822 14.2812C7.12289 13.5272 6.71892 12.8406 6.16448 12.2862C5.61003 11.7318 4.9234 11.3278 4.16944 11.1125L0.668519 10.1124C0.475889 10.0573 0.306461 9.94087 0.185849 9.78086C0.0652373 9.62085 0 9.42593 0 9.22556C0 9.02518 0.0652373 8.83026 0.185849 8.67025C0.306461 8.51024 0.475889 8.39385 0.668519 8.33867L4.16944 7.33862C4.9234 7.1233 5.61003 6.71935 6.16448 6.16492C6.71892 5.61049 7.12289 4.92389 7.33822 4.16995L8.33831 0.669161C8.39337 0.476413 8.50971 0.306843 8.66974 0.186108C8.82976 0.0653724 9.02476 4.13301e-05 9.22522 0Z" fill="#334155" fill-opacity="0.5"/>
</svg>
