<svg id="Schrift" xmlns="http://www.w3.org/2000/svg" viewBox="0 0 932 350.82"><defs><style>.cls-1{fill:#fff;}.cls-2{opacity:0.5;}</style></defs><title>studitemps-logo-wort-bildmarke-horizontal-negativ</title><path class="cls-1" d="M188.07,159.49h0L113.66,233.9a7.52,7.52,0,0,0,0,10.63l31.89,31.89a7.52,7.52,0,0,0,10.63,0L220,212.64a22.55,22.55,0,0,0,0-31.89l-31.89-31.89a7.52,7.52,0,0,1,0,10.63Z"/><path class="cls-1" d="M142.64,74.44,78.85,138.22a22.55,22.55,0,0,0,0,31.89L110.74,202a7.52,7.52,0,0,1,0-10.63h0L185.16,117a7.52,7.52,0,0,0,0-10.63L153.27,74.44A7.52,7.52,0,0,0,142.64,74.44Z"/><g class="cls-2"><path class="cls-1" d="M117.52,200.45a3.76,3.76,0,0,1-2.66-6.42l43.62-43.62h22.83a3.75,3.75,0,0,1,2.65,6.41l-43.62,43.62Z"/></g><path class="cls-1" d="M326.55,181.39c-3.13-3.46-7.12-6.12-13.34-8.89-2.82-1.26-5.57-2.32-8.49-3.44l-3.06-1.18a95.1,95.1,0,0,1-10.51-4.51,19.29,19.29,0,0,1-7.41-5.41,13.36,13.36,0,0,1-3.16-9.58,13,13,0,0,1,4.28-8.79c4.21-3.78,10.75-4.19,13.37-4.19H299a25.46,25.46,0,0,1,17.27,7.68,4.37,4.37,0,0,0,3,1.32,3.48,3.48,0,0,0,2.46-1l2.22-2c2.34-2,1.74-3.74,1.12-4.7a27.35,27.35,0,0,0-9.72-7.78,38.28,38.28,0,0,0-16-3.71h-1.11a37.16,37.16,0,0,0-18,4.19c-8,4.44-12.33,12-12.17,21.27.14,9.09,5.11,16.39,14.78,21.71,2.75,1.41,5.54,2.71,8.49,4.08l.55.25c1.56.64,3.1,1.25,4.62,1.85a100,100,0,0,1,14.68,6.74c5.14,3.09,7.54,7,7.54,12.24a14.64,14.64,0,0,1-4.92,11.88c-3.83,3.38-9.67,5.25-16.44,5.25H297c-7.18-.13-17.36-2.94-22.74-8.77a3.79,3.79,0,0,0-2.86-1.44,3.49,3.49,0,0,0-2.61,1.23l-3.15,3.22a3.07,3.07,0,0,0-.19,4.6c6.69,7.07,17.83,11.6,29.82,12.11q1.09,0,2.18,0c11.28,0,20.17-2.71,26.42-8.06a26.06,26.06,0,0,0,8.76-20.24A23.82,23.82,0,0,0,326.55,181.39Z"/><path class="cls-1" d="M641.79,167.09c-4.38-9-13-14.19-23.74-14.19-7.94,0-15.09,2.72-20.14,7.64-8.56,8.18-10.36,20.12-10.36,28.7,0,9.07.88,19.39,7.4,27.13,5.34,6.22,13.17,9.5,22.65,9.5a34.75,34.75,0,0,0,17.93-4.5,23.23,23.23,0,0,0,5.61-4.52,3,3,0,0,0,.92-2.27v-.14l0-.14a4,4,0,0,0-1.07-1.87l-3.2-3.26a3.28,3.28,0,0,0-2.33-1,3.65,3.65,0,0,0-2.31.87c-6.72,5.06-10.53,6-15.22,6a14.91,14.91,0,0,1-12.23-5.91,26.52,26.52,0,0,1-4.76-14.83H644l.15-1.13C645.63,182,644.85,173.44,641.79,167.09Zm-24-3.39a13.2,13.2,0,0,1,11.69,6.36c1.94,3.44,2.82,8,2.63,13.5H600.95c.21-4.09,1.41-9.37,4.28-13.23A15.15,15.15,0,0,1,617.75,163.7Z"/><path class="cls-1" d="M845.33,185.6c-1.44-.61-2.95-1.18-4.4-1.73-1.05-.4-2.12-.8-3.19-1.23l-1.77-.69a46.62,46.62,0,0,1-5.62-2.47l-.11-.05a14.49,14.49,0,0,1-4.63-3.16,8.44,8.44,0,0,1-1.69-5.51,7.76,7.76,0,0,1,2.29-4.92c1.69-1.44,4.57-2.31,7.7-2.31l.72,0a15.88,15.88,0,0,1,7.93,2.38,37.73,37.73,0,0,1,3.6,3.09,3.64,3.64,0,0,0,2.53,1,3.58,3.58,0,0,0,2.46-.91l3.25-2.72a3.15,3.15,0,0,0,.26-4.37,25.66,25.66,0,0,0-19.6-9.09l-1,0a27.64,27.64,0,0,0-13.15,3.17,17.42,17.42,0,0,0-9.14,16.24c0,7,3.64,12.48,10.81,16.39a64.47,64.47,0,0,0,6.5,3.17c1.3.55,2.61,1.06,3.92,1.57a57,57,0,0,1,9.19,4.22c3.06,1.84,4.36,3.91,4.36,6.93a9.1,9.1,0,0,1-3.07,7.34,14.82,14.82,0,0,1-9.7,3.16h-.43A22.59,22.59,0,0,1,821.28,211l-.1-.07a12.53,12.53,0,0,1-1.92-1.56c-.35-.33-.71-.65-1.09-1a4.09,4.09,0,0,0-2.57-.9,3.7,3.7,0,0,0-2.62,1c-1,1.14-2.2,2.29-3.26,3.33l-.08.09a3.3,3.3,0,0,0-.17,4.29,24.16,24.16,0,0,0,2,2.07c5.53,4.83,13.64,7.61,22.25,7.6h.76c8.08-.19,14.41-2.19,18.87-6a20.72,20.72,0,0,0,6.46-15.49C859.58,193.43,852,188.6,845.33,185.6Z"/><path class="cls-1" d="M504.36,126.44a1.38,1.38,0,0,0-1.47-1.27H492.61a1.38,1.38,0,0,0-1.47,1.27v27.22a52.57,52.57,0,0,0-8.72-.76l-1.32,0c-11.5.15-20.39,4-25.69,11-4.9,6.26-7.36,14.49-7.51,25.15-.12,7.25.89,17.51,6.43,25.17,5.38,7.24,15.08,11.48,26.61,11.64h1.37a56.64,56.64,0,0,0,21.18-3.95l.88-.33ZM491.14,214a28,28,0,0,1-8.28,1.24l-1.08,0C474,215,468.22,212,465,206.62c-2.49-4-3.76-9.8-3.76-17.23,0-9.09,2.29-16.25,6.62-20.7,3.08-3.23,7.53-4.82,14-5a41.66,41.66,0,0,1,9.25,1.16Z"/><path class="cls-1" d="M439.62,154.77a1.38,1.38,0,0,0-1.47-1.27H427.87a1.38,1.38,0,0,0-1.47,1.27v58.55a59.84,59.84,0,0,1-12.71,1.62c-6.14-.15-10.09-1.57-12.45-4.47-3.11-3.83-3.51-10.68-3.51-16.21V154.77a1.38,1.38,0,0,0-1.47-1.27H386a1.38,1.38,0,0,0-1.47,1.27l.46,49.31A23.68,23.68,0,0,0,391,218.5c4.46,4.63,11.7,7.07,21.51,7.24h.87c7.91,0,18.35-2,25.18-3.9l1-.29Z"/><path class="cls-1" d="M524.39,143.14a9,9,0,1,0,0-18,9,9,0,0,0,0,18Z"/><path class="cls-1" d="M531,224.39a1.38,1.38,0,0,1-1.47,1.27H519.4a1.38,1.38,0,0,1-1.47-1.27V154.77a1.38,1.38,0,0,1,1.47-1.27h10.13a1.38,1.38,0,0,1,1.47,1.27Z"/><path class="cls-1" d="M655.08,224.39a1.38,1.38,0,0,0,1.47,1.27h10.28a1.38,1.38,0,0,0,1.47-1.27V165.05a28.42,28.42,0,0,1,8.06-1.35c4.68,0,8,.87,10,2.59,2.17,1.84,3.19,5,3.19,9.85v48.26a1.38,1.38,0,0,0,1.47,1.27h10.28a1.38,1.38,0,0,0,1.47-1.27V166.55a22,22,0,0,1,10.41-2.85c3.85.15,6.51,1.1,8.18,2.95,3.55,3.57,3.3,11.86,3.17,16.31,0,.78,0,1.46,0,2v39.42a1.38,1.38,0,0,0,1.47,1.27h10.28a1.38,1.38,0,0,0,1.47-1.27V190.28c0-1,0-2,0-3.06,0-4.56.06-10.25-.32-14.7-.49-6.51-2.5-11.25-6.18-14.52-3.93-3.37-9.52-5.08-16.61-5.08a31.39,31.39,0,0,0-17.72,5.3c-4.07-3.39-10.06-5.13-18.24-5.3h-.9c-8.55,0-17.28,2.36-21.72,3.77l-1,.31Z"/><path class="cls-1" d="M762.24,225.33a72.83,72.83,0,0,0,8.81.56c1.53,0,3.11,0,4.73-.16,9.11-1,16.36-4.64,21-10.38,6.74-7.91,8.15-18.32,8.15-25.66,0-8.09-.8-18.36-7.06-26.06-5.11-6.55-14.09-10.56-24-10.73h-1.38a62.66,62.66,0,0,0-22.53,3.95l-.88.33v94.27a1.38,1.38,0,0,0,1.47,1.27h10.28a1.38,1.38,0,0,0,1.47-1.27Zm29.27-36c-.14,5.64-.6,12.12-4.35,17.68-4.33,6.66-12.54,7.81-17.09,7.9l-1.35,0a33.91,33.91,0,0,1-6.49-.62V164.79a41.89,41.89,0,0,1,9.77-1.23h.52c5.44,0,10.68,2.13,13.66,5.51C790,173.72,791.7,180.17,791.51,189.37Z"/><path class="cls-1" d="M553.39,125.16a1.38,1.38,0,0,0-1.47,1.27V153.5H542a1.38,1.38,0,0,0-1.47,1.27V163a1.38,1.38,0,0,0,1.47,1.27h9.87v32.62c0,.87,0,1.75,0,2.64,0,2.8-.06,5.7.18,8.68.43,3.75,1.14,8,4.22,11.54,4.55,5.29,10.7,6,15.54,6a23.4,23.4,0,0,0,13-3.64,3.39,3.39,0,0,0,1.46-2.07,3.26,3.26,0,0,0-.42-2.46l-2.09-3.64a3.19,3.19,0,0,0-3-1.69,3.92,3.92,0,0,0-2.14.63,10,10,0,0,1-6,2.08,6.11,6.11,0,0,1-5.9-3.79c-1.07-2.21-1.39-4.84-1.55-8.06V164.29h17a1.38,1.38,0,0,0,1.47-1.27v-8.25a1.38,1.38,0,0,0-1.47-1.27h-17V126.43a1.38,1.38,0,0,0-1.47-1.27Z"/><path class="cls-1" d="M376.36,154.77a1.38,1.38,0,0,0-1.47-1.27h-17V126.43a1.38,1.38,0,0,0-1.47-1.27H346.16a1.38,1.38,0,0,0-1.47,1.27V153.5h-9.87a1.38,1.38,0,0,0-1.47,1.27V163a1.38,1.38,0,0,0,1.47,1.27h9.87v32.62c0,.87,0,1.75,0,2.64,0,2.8-.06,5.7.18,8.68.43,3.75,1.14,8,4.22,11.54,4.55,5.29,10.7,6,15.54,6a23.4,23.4,0,0,0,13-3.64A3.39,3.39,0,0,0,379,220a3.27,3.27,0,0,0-.42-2.46l-2.09-3.64a3.19,3.19,0,0,0-3-1.69,3.92,3.92,0,0,0-2.14.63,10,10,0,0,1-6,2.08,6.11,6.11,0,0,1-5.9-3.79c-1.07-2.2-1.39-4.84-1.55-8.06V164.29h17a1.38,1.38,0,0,0,1.47-1.27Z"/></svg>